<?xml version="1.0" encoding="UTF-8"?>
<svg width="353px" height="228px" viewBox="0 0 353 228" version="1.1" xmlns="http://www.w3.org/2000/svg" xmlns:xlink="http://www.w3.org/1999/xlink">
    <!-- Generator: Sketch 61.2 (89653) - https://sketch.com -->
    <title>Page 1</title>
    <desc>Created with Sketch.</desc>
    <defs>
        <linearGradient x1="73.6050856%" y1="45.1656979%" x2="21.6667782%" y2="58.4067356%" id="linearGradient-1">
            <stop stop-color="#B6E1FF" offset="0%"></stop>
            <stop stop-color="#DCFFEE" offset="100%"></stop>
        </linearGradient>
        <linearGradient x1="17.8025693%" y1="45.6251273%" x2="72.1696909%" y2="45.6251273%" id="linearGradient-2">
            <stop stop-color="#F0FFF6" offset="0%"></stop>
            <stop stop-color="#E0E1FF" offset="100%"></stop>
        </linearGradient>
        <linearGradient x1="50%" y1="0%" x2="50%" y2="84.8072719%" id="linearGradient-3">
            <stop stop-color="#008BEC" offset="0%"></stop>
            <stop stop-color="#00C6FF" offset="100%"></stop>
        </linearGradient>
    </defs>
    <g id="Page-1" stroke="none" stroke-width="1" fill="none" fill-rule="evenodd">
        <g id="scatter_select_a_name" transform="translate(-341.000000, -104.000000)">
            <circle id="Background_19_-Copy-3" fill="#AADCFF" fill-rule="nonzero" opacity="0.401762463" cx="374" cy="168" r="33"></circle>
            <path d="M536.276674,104.023262 C445.217154,106.33934 369.276674,149.023262 359.276674,234.023262 C349.276674,319.023262 436.427875,355.435032 586.852274,314.229147 C737.276674,273.023262 627.336195,101.707183 536.276674,104.023262 Z" id="Path-28-Copy" fill="url(#linearGradient-1)" fill-rule="nonzero"></path>
            <ellipse id="Oval" fill="#0799FF" opacity="0.0734747024" cx="478.385212" cy="281.391316" rx="77.5788995" ry="31.3913164"></ellipse>
            <path d="M534,243 C467.050488,243 405.954864,249.826814 359.58414,261.064146 L359.570392,261.001839 L359.570392,261.001839 L359.559535,260.936209 C358.257208,252.613632 358.146624,243.628686 359.276674,234.023262 C369.176674,149.873262 443.704938,107.19725 533.549475,104.104856 L536.276674,104.023262 L539.013845,104.005565 C603.000295,104.793898 674.870111,189.173651 658.84197,252.961197 L659.150653,251.633743 C621.949663,246.127682 579.315801,243 534,243 Z" id="Path" fill="url(#linearGradient-2)" fill-rule="nonzero"></path>
            <g id="panda" transform="translate(477.806312, 217.611837) rotate(-7.000000) translate(-477.806312, -217.611837) translate(391.806312, 136.111837)">
                <g id="Group-7" transform="translate(85.922590, 81.144681) rotate(18.000000) translate(-85.922590, -81.144681) translate(15.922590, 18.644681)">
                    <path d="M138.905712,62.7343214 C138.234282,60.7986365 137.540552,59.155736 136.758809,57.5798977 C136.579043,57.2175253 136.399738,56.8682658 136.205436,56.5007638 L134.962487,54.2156706 C134.308989,52.9994032 132.793245,52.5431882 131.576978,53.1966857 C130.360711,53.8501833 129.904496,55.3659272 130.557993,56.5821945 L131.402065,58.1250962 C131.742348,58.749391 132.012268,59.2628752 132.279673,59.8019109 C132.969276,61.192013 133.580914,62.6405033 134.181827,64.3728929 C134.634306,65.6773576 136.058591,66.3680284 137.363055,65.9155493 C138.66752,65.4630703 139.358191,64.038786 138.905712,62.7343214 Z" id="Path-35-Copy" fill="#0799FF" fill-rule="nonzero"></path>
                    <path d="M138.814612,47.1112558 C134.89092,58.2507889 127.077718,66.0303889 115.375008,70.4500557 C111.935672,71.7489616 112.759877,74.2856044 113.239907,75.7629824 C120.761732,98.9127804 107.21831,114.876337 85.9455226,121.788285 C64.6727352,128.700232 43.7261541,123.943157 36.2043287,100.793359 L35.9560887,100.023151 C33.3282261,91.8032908 36.6299171,81.4636965 26.3793106,76.7469088 C16.128704,72.0301211 1.52681612,55.9854153 0.571989458,48.9188633 C-0.3817669,41.8602324 14.0389827,33.2200747 17.0422315,39.8892308 L17.1296142,40.0955078 C19.8926451,47.0410983 45.6330411,66.4887519 69.4367736,66.8770104 L70.1574803,66.8829094 C93.9195462,66.8829094 119.869933,47.5047117 123.094611,40.3097745 L123.185346,40.0955078 C125.976287,33.0797598 141.047365,40.0955078 138.814612,47.1112558 Z" id="Path" fill="#564584"></path>
                    <path d="M101.033988,67.3321916 C91.4670594,83.2770734 85.7269019,114.529042 103.58517,120.906995 C121.443437,127.284947 125.270209,125.371562 127.82139,117.080223 C130.372571,108.788884 127.183595,106.875499 119.530051,103.686522 C114.427689,101.560538 110.813516,97.9463648 108.687532,92.8440026" id="Path-32-Copy" fill="#564584"></path>
                    <path d="M97.726916,109.030247 C98.0791606,109.030247 98.3647113,109.315797 98.3647113,109.668042 C98.3647113,110.305377 98.2916064,111.036425 98.1567223,111.84573 C98.0440722,112.52163 97.8911139,113.235436 97.707873,113.968399 C97.5658031,114.536679 97.4137117,115.084208 97.2615335,115.591469 L97.1139075,116.069962 L97.0563912,116.247683 C96.9450016,116.581852 96.5838054,116.76245 96.2496369,116.65106 C95.9154683,116.539671 95.7348702,116.178475 95.8462597,115.844306 L95.9499588,115.519445 C95.9767332,115.433134 96.0068357,115.334609 96.0397394,115.22493 C96.1865278,114.735636 96.3334029,114.206885 96.4703684,113.659023 C96.6458874,112.956947 96.7918956,112.275576 96.8984876,111.636024 C97.0227078,110.890702 97.0891207,110.226573 97.0891207,109.668042 C97.0891207,109.315797 97.3746714,109.030247 97.726916,109.030247 Z" id="Path-33-Copy" fill="#0799FF" fill-rule="nonzero" transform="translate(97.089034, 112.857105) rotate(165.000000) translate(-97.089034, -112.857105) "></path>
                    <path d="M70.1574803,12.0325157 C44.0554838,12.0325157 28.7007874,20.3514864 28.7007874,38.5010196 C28.7007874,57.10482 45.2899431,67.5207046 70.1574803,67.5207046 C94.8583877,67.5207046 110.976378,57.1780619 110.976378,38.5010196 C110.976378,20.2888491 96.0652633,12.0325157 70.1574803,12.0325157 Z" id="Oval" fill="#0799FF" fill-rule="nonzero"></path>
                    <path d="M70.1574803,13.3081062 C95.4544714,13.3081062 109.700787,21.1963385 109.700787,38.5010196 C109.700787,56.3247749 94.2409156,66.2451141 70.1574803,66.2451141 C45.9056246,66.2451141 29.976378,56.2435686 29.976378,38.5010196 C29.976378,21.2669734 44.6664152,13.3081062 70.1574803,13.3081062 Z" id="Path" fill="#FFFFFF"></path>
                    <g id="Group" transform="translate(36.035433, 25.426216)" fill="url(#linearGradient-3)">
                        <path d="M52.3376642,22.6417323 C59.3110713,22.6417323 64.8647137,19.8881284 64.8647137,13.7932608 C64.8647137,7.6983931 59.3110713,5.74015748 52.3376642,5.74015748 C45.364257,5.74015748 39.6117726,7.6983931 39.6117726,13.7932608 C39.6117726,19.8881284 45.364257,22.6417323 52.3376642,22.6417323 Z" id="Oval-Copy-3" transform="translate(52.238243, 14.190945) rotate(-148.000000) translate(-52.238243, -14.190945) "></path>
                        <path d="M15.914868,22.6417323 C22.8882751,22.6417323 28.4419176,19.8881284 28.4419176,13.7932608 C28.4419176,7.6983931 22.8882751,5.74015748 15.914868,5.74015748 C8.94146084,5.74015748 3.18897638,7.6983931 3.18897638,13.7932608 C3.18897638,19.8881284 8.94146084,22.6417323 15.914868,22.6417323 Z" id="Oval-Copy-4" transform="translate(15.815447, 14.190945) scale(-1, 1) rotate(-148.000000) translate(-15.815447, -14.190945) "></path>
                    </g>
                    <path d="M38.9807914,22.7937315 C46.1182378,23.7819879 52.8800991,16.6266827 52.8800991,10.531815 C52.8800991,4.43694732 44.9689497,5.89215671 38.9807914,5.89215671 C32.9926331,5.89215671 25.9055638,7.08136622 28.0528975,13.94526 C30.2002313,20.8091538 31.843345,21.8054752 38.9807914,22.7937315 Z" id="Oval-Copy-5" fill="#564584" transform="translate(40.270213, 14.313003) scale(-1, 1) rotate(-148.000000) translate(-40.270213, -14.313003) "></path>
                    <path d="M98.9129017,22.7937315 C106.050348,23.7819879 112.812209,16.6266827 112.812209,10.531815 C112.812209,4.43694732 104.90106,5.89215671 98.9129017,5.89215671 C92.9247434,5.89215671 85.8376741,7.08136622 87.9850078,13.94526 C90.1323416,20.8091538 91.7754553,21.8054752 98.9129017,22.7937315 Z" id="Oval-Copy-6" fill="#564584" transform="translate(100.202324, 14.313003) rotate(-148.000000) translate(-100.202324, -14.313003) "></path>
                    <g id="Group-6" transform="translate(64.692913, 51.213618)" fill="#0799FF" fill-rule="nonzero">
                        <path d="M5.38227559,0.362287661 C5.73447439,0.356607276 6.02459279,0.637515954 6.03027318,0.989714754 C6.07235096,3.59864806 7.04607577,4.55438925 9.18648569,4.19765427 C9.53393762,4.13974561 9.86254731,4.37446682 9.92045597,4.72191876 C9.97836462,5.06937069 9.74364342,5.39798038 9.39619148,5.45588904 C6.43423919,5.94954775 4.80877884,4.35410785 4.7548485,1.01028525 C4.74916812,0.658086447 5.03007679,0.367968046 5.38227559,0.362287661 Z" id="Path-31"></path>
                        <path d="M1,0.362204724 C1.3522446,0.362204724 1.63779528,0.647755396 1.63779528,1 C1.63779528,3.60521155 2.58619239,4.55360866 4.72191876,4.19765427 C5.06937069,4.13974561 5.39798038,4.37446682 5.45588904,4.72191876 C5.51379769,5.06937069 5.27907649,5.39798038 4.93162455,5.45588904 C1.96498871,5.95032834 0.362204724,4.34754436 0.362204724,1 C0.362204724,0.647755396 0.647755396,0.362204724 1,0.362204724 Z" id="Path-31-Copy" transform="translate(2.913436, 2.953053) scale(-1, 1) translate(-2.913436, -2.953053) "></path>
                    </g>
                    <path d="M69.4964719,46.4757198 L70.1811803,46.4751052 C71.8424706,46.4948864 75.3517998,46.6759352 74.7814961,48.3868464 C74.1785384,50.1957195 71.8655115,52.0045927 69.9979648,52.1968038 L69.9980315,52.213618 C69.945402,52.213618 69.8922899,52.2121704 69.8387483,52.209315 C69.7848755,52.2121704 69.7317635,52.213618 69.6791339,52.213618 L69.6793875,52.1968231 C67.8118083,52.0047134 65.4986472,50.1957799 64.8956693,48.3868464 C64.3252861,46.6756968 67.835673,46.494836 69.4964719,46.4757198 L69.4964719,46.4757198 Z" id="Path" fill="#1D384C"></path>
                </g>
                <path d="M153.839715,55.8252081 C153.614835,52.2878741 154.398104,48.5362981 153.165074,45.2132062 C151.700439,41.2659256 149.960522,38.6699835 147.945322,37.4253799 C146.380439,47.640952 148.207984,53.7675425 153.427957,55.8051514 L153.839715,55.8252081 Z" id="Path-2" fill="#0799FF"></path>
                <path d="M160.631577,53.2805389 C160.449389,50.4147469 161.083959,47.3753855 160.085012,44.683163 C158.89843,41.4852504 157.488825,39.3821327 155.8562,38.3738098 C154.588401,46.6500156 156.068997,51.6135089 160.297989,53.2642898 L160.631577,53.2805389 Z" id="Path-2-Copy" fill="#0799FF" transform="translate(158.041505, 45.827174) rotate(32.000000) translate(-158.041505, -45.827174) "></path>
                <path d="M53.4469583,93.8163712 C51.2091655,102.791668 53.5253412,112.218825 59.5046186,120.420697 L59.5574566,120.484109 C63.3416659,124.470062 67.0534861,127.262184 70.6993666,128.854575 L71.8969731,129.36124 C77.1377409,131.59934 78.9858871,132.966869 79.6019895,135.343608 L79.712485,135.802795 L80.0339321,135.92084 C81.3837597,136.416541 82.7452139,136.836238 84.1107043,137.176693 C88.380211,138.2412 92.3532915,138.76325 96.0111588,138.72426 L96.2486943,138.721729 L96.4266994,138.564427 C103.16402,132.610721 107.885093,130.394418 114.334433,130.888221 L114.65148,130.912497 L114.861682,130.67391 C118.136387,126.956989 120.583744,121.954894 122.174228,115.644111 L122.291907,115.168348 C124.478049,106.161403 124.324014,101.703262 121.51218,99.3745805 L121.352817,99.2456981 C119.057247,97.4341089 116.22299,97.1495628 106.429631,97.2119279 L103.747941,97.230028 C100.403501,97.2478406 98.2123977,97.2321112 95.5397327,97.159877 C88.8326826,96.9786054 82.8604176,95.1802384 75.59984,91.7250278 L75.1027805,91.4868774 C73.9841146,90.9473421 69.4403995,88.6535481 67.9101369,87.9175151 L67.678527,87.8072157 C65.1043441,86.5979871 63.2383208,85.938052 61.5886381,85.736233 C57.5330855,85.2400843 54.9816326,87.661129 53.4469583,93.8163712 Z" id="Combined-Shape" fill="#0799FF" fill-rule="nonzero"></path>
                <path d="M61.4337396,87.0023837 C62.8575033,87.1765643 64.5347228,87.7565534 66.844173,88.8255835 L67.1361745,88.9617654 C68.3471935,89.5306445 73.3494894,92.0574625 74.5486438,92.6358177 C82.1831615,96.3179646 88.4333551,98.2438691 95.5052699,98.4350019 L96.6734287,98.463628 C99.0625797,98.515782 101.242973,98.5221444 104.516765,98.5011057 L106.758183,98.4856259 C116.090589,98.4339364 118.74167,98.7363613 120.698563,100.357005 C122.987315,102.252486 123.127739,106.316661 121.052308,114.867476 L120.935181,115.340848 C119.47188,121.143148 117.277033,125.774172 114.386287,129.266527 L114.110504,129.592984 L113.803903,129.576099 C107.470914,129.250616 102.652699,131.488543 96.2200579,137.050728 L95.7624094,137.449346 L95.9975629,137.448742 C92.4547567,137.486506 88.5885041,136.978493 84.4192976,135.938993 L83.8534819,135.793167 C82.9108359,135.542306 81.9702722,135.252425 81.0345137,134.924645 L80.7857008,134.835024 L80.757376,134.736636 C79.9072109,131.884609 77.6048449,130.353403 71.5315867,127.822879 L71.2062749,127.684022 C67.8415848,126.213668 64.3797635,123.642505 60.8266745,119.96517 L60.5121024,119.637 L60.5353804,119.669257 C54.766929,111.756579 52.5442138,102.709819 54.6846584,94.1249645 C56.0795887,88.5302046 58.1172876,86.5966553 61.4337396,87.0023837 Z" id="Path" fill="#FFFFFF" fill-rule="nonzero"></path>
                <path d="M44.9746419,88.549408 C27.7541695,111.510038 27.7541695,137.021849 50.7147994,145.950983 C73.6754293,154.880117 76.2266104,150.41555 78.7777915,142.124211 C81.3289726,133.832873 78.1399962,131.919487 70.4864529,128.73051 C65.3840907,126.604526 60.1071357,122.03366 54.655588,115.017912 C49.0520176,108.002164 45.8250356,99.1793292 44.9746419,88.549408 Z" id="Path-32" fill="#564584"></path>
                <path d="M80.2154147,134.789565 C80.5676593,134.789565 80.8532099,135.075116 80.8532099,135.427361 C80.8532099,136.064695 80.7801051,136.795744 80.645221,137.605048 C80.5325709,138.280949 80.3796126,138.994755 80.1963717,139.727718 C80.0543018,140.295998 79.9022104,140.843527 79.7500322,141.350787 L79.6486636,141.682393 L79.5448898,142.007002 C79.4335003,142.341171 79.0723041,142.521769 78.7381355,142.410379 C78.403967,142.29899 78.2233689,141.937793 78.3347584,141.603625 L78.4962877,141.090171 L78.5282381,140.984249 C78.6750265,140.494954 78.8219016,139.966204 78.9588671,139.418342 C79.134386,138.716266 79.2803943,138.034894 79.3869863,137.395342 C79.5112065,136.650021 79.5776194,135.985892 79.5776194,135.427361 C79.5776194,135.075116 79.8631701,134.789565 80.2154147,134.789565 Z" id="Path-33" fill="#0799FF" fill-rule="nonzero"></path>
            </g>
            <path d="M540.306312,209 C540.306312,206.169693 540.601349,203.316061 541.18468,200.567198 C541.471296,199.216563 540.608737,197.889308 539.258102,197.602692 C537.907466,197.316077 536.580211,198.178635 536.293595,199.529271 C535.637313,202.621906 535.306312,205.823389 535.306312,209 C535.306312,210.380712 536.4256,211.5 537.806312,211.5 C539.187024,211.5 540.306312,210.380712 540.306312,209 Z M542.43826,196.058112 C543.394708,193.315967 544.651467,190.81355 546.180215,188.63791 C546.974021,187.508203 546.70172,185.948888 545.572013,185.155082 C544.442307,184.361276 542.882992,184.633577 542.089185,185.763283 C540.285831,188.329731 538.821415,191.245628 537.717198,194.411425 C537.262478,195.71511 537.9507,197.140579 539.254386,197.595299 C540.558071,198.050019 541.98354,197.361797 542.43826,196.058112 Z M549.110539,185.195878 C550.804395,183.561299 552.706322,182.25086 554.807378,181.291154 C556.063276,180.717494 556.616338,179.234344 556.042678,177.978446 C555.469018,176.722549 553.985868,176.169486 552.72997,176.743146 C550.105214,177.942064 547.733846,179.575952 545.638521,181.597949 C544.64498,182.55672 544.616794,184.139382 545.575565,185.132922 C546.534336,186.126463 548.116998,186.154649 549.110539,185.195878 Z" id="Path-35" fill="#0799FF" fill-rule="nonzero"></path>
            <path d="M494.599649,195.739331 C501.599649,193.739331 504.599649,197.739331 504.599649,201.739331" id="Path-28" stroke="#FFFFFF" stroke-width="2" stroke-linecap="round" transform="translate(499.599649, 198.473344) rotate(5.000000) translate(-499.599649, -198.473344) "></path>
            <path d="M459.40908,189.24574 C466.40908,187.24574 469.40908,191.24574 469.40908,195.24574" id="Path-28-Copy-3" stroke="#FFFFFF" stroke-width="2" stroke-linecap="round" transform="translate(464.409080, 191.979754) scale(-1, 1) rotate(-17.000000) translate(-464.409080, -191.979754) "></path>
            <circle id="Background_19_-Copy-2" fill="#ECFFAA" fill-rule="nonzero" opacity="0.361049107" cx="645" cy="269" r="49"></circle>
        </g>
    </g>
</svg>