<?xml version="1.0" encoding="UTF-8"?>
<svg width="600px" height="280px" viewBox="0 0 600 280" version="1.1" xmlns="http://www.w3.org/2000/svg" xmlns:xlink="http://www.w3.org/1999/xlink">
    <!-- Generator: Sketch 53.2 (72643) - https://sketchapp.com -->
    <title>scatter_logo_transparent</title>
    <desc>Created with Sketch.</desc>
    <g id="scatter_logo_transparent" stroke="none" stroke-width="1" fill="none" fill-rule="evenodd">
        <g id="logo" transform="translate(31.000000, 32.000000)" fill="#00A8FF">
            <path d="M458.834781,162.712636 C458.868749,163.267725 458.854921,163.84252 458.793297,164.437022 C458.449004,167.297187 457.868019,170.572488 457.050324,174.263023 C456.232629,177.953558 455.006105,181.690169 453.370715,185.472968 C451.735325,189.255767 449.648082,192.969312 447.108924,196.613716 C444.569766,200.25812 441.449661,203.510355 437.748516,206.37052 C434.04737,209.230685 429.700741,211.537235 424.708498,213.290239 C419.716255,215.043243 413.992476,215.919732 407.536989,215.919732 C401.511869,215.919732 395.6805,214.65113 390.042708,212.113887 C384.404917,209.576644 379.412749,205.932295 375.066054,201.180731 C373.061337,198.989285 371.239717,196.562354 369.601184,193.89992 C368.607436,195.623211 367.5346,197.28878 366.382671,198.896635 C363.310609,203.184598 359.654479,206.742642 355.414169,209.570873 C351.173859,212.399104 346.198059,213.813198 340.486621,213.813198 C336.938607,213.813198 333.671886,213.242999 330.686362,212.102583 C327.700838,210.962168 325.126402,209.13753 322.962979,206.628615 C320.858604,204.188179 319.204579,201.078801 318.000858,197.300391 C317.641002,197.838647 317.272684,198.370728 316.895905,198.896635 C313.823843,203.184598 310.167712,206.742642 305.927402,209.570873 C301.687092,212.399104 296.711293,213.813198 290.999855,213.813198 C287.451841,213.813198 284.18512,213.242999 281.199596,212.102583 C278.214072,210.962168 275.639636,209.13753 273.476213,206.628615 C271.965213,204.876314 270.686398,202.779131 269.63975,200.337032 C269.526852,200.503539 269.413176,200.669444 269.29872,200.834745 C266.296183,205.171124 262.671745,208.769342 258.425299,211.629507 C254.178852,214.489671 249.224739,215.919732 243.562811,215.919732 C238.930324,215.919732 234.898405,214.858719 231.466933,212.736662 C228.035461,210.614604 225.333218,207.800613 223.360122,204.294604 C220.700731,207.523823 217.505221,210.268617 213.773495,212.52907 C210.04177,214.789523 205.688155,215.919732 200.712521,215.919732 C195.565313,215.919732 191.040128,214.812588 187.136829,212.598267 C183.23353,210.383946 179.952234,207.362366 177.292843,203.533435 C176.385117,202.226512 175.554853,200.838978 174.802048,199.370828 C172.634625,201.91912 170.148562,204.252337 167.343821,206.37052 C163.556602,209.230685 159.145419,211.537235 154.11014,213.290239 C149.07486,215.043243 143.329563,215.919732 136.874077,215.919732 C131.021102,215.919732 125.340359,214.766457 119.831677,212.459873 C114.322995,210.153288 109.438417,206.739594 105.177796,202.218689 C100.917175,197.697783 97.5173361,192.115932 94.978178,185.472968 C92.43902,178.830005 91.16946,171.126128 91.16946,162.361106 C91.16946,154.241928 92.2453583,146.261265 94.3971871,138.418878 C96.549016,130.57649 99.5184953,123.587644 103.305714,117.452129 C107.092933,111.316614 111.633224,106.357531 116.926723,102.574733 C122.220222,98.7919338 128.008555,96.9005629 134.291895,96.9005629 C138.853772,96.9005629 142.727006,97.8923793 145.911713,99.8760421 C149.096419,101.859705 151.678575,104.258517 153.658258,107.07255 C155.63794,109.886583 157.079644,112.908164 157.983412,116.137382 C158.88718,119.366601 159.339058,122.226723 159.339058,124.717834 C159.339058,126.563102 158.88718,128.223818 157.983412,129.700032 C157.079644,131.176246 155.982228,132.421783 154.69113,133.43668 C153.400033,134.451577 151.979847,135.212739 150.430531,135.720187 C148.881214,136.227636 147.504064,136.435225 146.29904,136.342962 C145.094016,136.250699 144.125707,135.789389 143.394085,134.959018 C142.662464,134.128648 142.425766,132.883111 142.683985,131.22237 C142.339693,130.022946 142.016923,128.546754 141.715667,126.79375 C141.414411,125.040745 140.89798,123.356964 140.166358,121.742355 C139.434736,120.127745 138.423392,118.743815 137.132295,117.590523 C135.841197,116.437231 134.076724,115.860593 131.838822,115.860593 C129.428774,115.860593 127.083316,117.083065 124.802377,119.528045 C122.521438,121.973024 120.49875,125.317522 118.73425,129.561637 C116.96975,133.805753 115.549564,138.74177 114.47365,144.369836 C113.397736,149.997903 112.859786,155.994933 112.859786,162.361106 C112.859786,167.989173 113.526843,172.97132 114.860977,177.3077 C116.195111,181.644079 118.067174,185.288428 120.477223,188.240856 C122.887271,191.193284 125.74916,193.430638 129.062977,194.952983 C132.376793,196.475329 135.970294,197.236491 139.843586,197.236491 C145.007975,197.236491 149.50523,196.198543 153.335485,194.122617 C157.16574,192.046691 160.414953,189.301896 163.083221,185.888151 C165.641713,182.614852 167.725356,178.959879 169.334207,174.923133 C169.32121,174.337878 169.314711,173.74879 169.314711,173.155868 C169.314711,161.346155 171.073314,150.736025 174.590573,141.32516 C178.107831,131.914295 182.783142,123.910566 188.616644,117.313734 C194.450146,110.716902 201.119969,105.665558 208.626313,102.159549 C216.132658,98.6535408 223.917693,96.9005629 231.981651,96.9005629 C235.584697,96.9005629 238.501404,97.9615758 240.731861,100.083634 C242.962317,102.205691 244.077529,105.111944 244.077529,108.80248 C244.077529,111.201328 243.841619,112.885109 243.369791,113.853875 C242.897964,114.82264 242.018663,115.307016 240.731861,115.307016 C239.530846,115.307016 238.286956,115.214754 237.000154,115.030227 C235.713352,114.8457 234.383676,114.753438 233.011088,114.753438 C228.035454,114.753438 222.974109,115.929779 217.826901,118.282495 C212.679693,120.635211 208.02583,124.233429 203.86517,129.077257 C199.704511,133.921085 196.294537,140.056508 193.635146,147.48371 C190.975755,154.910912 189.64608,163.744999 189.64608,173.986234 C189.64608,181.459568 190.975755,187.202878 193.635146,191.216335 C196.294537,195.229792 199.940421,197.236491 204.572908,197.236491 C208.175953,197.236491 211.178446,195.783364 213.580476,192.877068 C215.982506,189.970771 217.91268,186.534012 219.371056,182.566686 L219.371056,138.834061 C219.371056,137.45011 219.306717,136.296835 219.178036,135.374201 C219.049356,134.451568 218.920678,133.667341 218.791998,133.021497 C218.663317,132.375653 218.556086,131.799016 218.470299,131.291567 C218.384512,130.784118 218.341619,130.299743 218.341619,129.838426 C218.341619,128.362212 219.006457,127.185871 220.336152,126.309369 C221.665848,125.432867 223.274326,124.994623 225.161635,124.994623 C229.536762,124.994623 233.011075,126.217094 235.584679,128.662074 C238.158283,131.107053 239.445065,134.036372 239.445065,137.450117 L239.445065,184.227419 C239.445065,185.795896 239.616636,187.341285 239.959783,188.863631 C240.302931,190.385976 240.817644,191.769906 241.503938,193.015462 C242.190232,194.261018 243.112427,195.2759 244.270548,196.060138 C245.42867,196.844377 246.779792,197.236491 248.323954,197.236491 C250.983345,197.236491 253.278107,196.221609 255.20831,194.191814 C257.138513,192.16202 258.81133,189.624815 260.226812,186.580123 C261.642294,183.535432 262.800399,180.237065 263.70116,176.684925 C264.601921,173.132785 265.352545,169.788287 265.953052,166.651332 C266.140415,165.730154 266.354917,164.887569 266.596561,164.123575 L266.596561,79.6462375 C263.654305,79.6462375 247.744594,79.6234296 245.451365,79.5778129 C243.158137,79.5321963 241.232719,79.4637724 239.675054,79.3725391 C237.857778,79.2813059 236.256869,79.190074 234.872278,79.0988407 C232.795391,79.0988407 230.956509,78.1180979 229.355575,76.1565828 C227.754642,74.1950677 226.629679,72.0283103 225.980652,69.6562455 C225.331625,67.2841808 225.245089,65.1174234 225.721042,63.1559083 C226.196995,61.1943932 227.38686,60.2136504 229.290673,60.2136504 C231.281023,60.3961169 233.487681,60.5329647 235.910716,60.624198 C237.987602,60.8066645 240.497136,60.9207044 243.439392,60.966321 C246.381648,61.0119376 262.962009,61.0803615 266.596561,61.1715948 L266.596561,13.6849205 C266.596561,11.6777888 266.445123,10.0812307 266.142244,8.89519835 C265.839365,7.70916597 265.53649,6.77403909 265.233611,6.08978964 C264.930731,5.40554019 264.627857,4.85814884 264.324977,4.44759917 C264.022098,4.03704951 263.870661,3.60369802 263.870661,3.14753172 C263.870661,2.60013217 264.130268,2.14397271 264.649489,1.77903967 C265.168711,1.41410663 265.860996,1.09479501 266.726365,0.821095232 C267.591735,0.547395453 268.521993,0.342123698 269.517168,0.205273808 C270.512342,0.0684239184 271.485868,0 272.437775,0 C276.851159,0 280.334218,1.20882256 282.887058,3.62650394 C285.439897,6.04418533 286.716298,8.94079787 286.716298,12.3164285 L286.716298,61.4452932 C292.858885,61.4452932 306.081917,61.3932708 316.083327,61.2892248 L316.083327,13.6849205 C316.083327,11.6777888 315.931889,10.0812307 315.62901,8.89519835 C315.326131,7.70916597 315.023256,6.77403909 314.720377,6.08978964 C314.417498,5.40554019 314.114623,4.85814884 313.811743,4.44759917 C313.508864,4.03704951 313.357427,3.60369802 313.357427,3.14753172 C313.357427,2.60013217 313.617034,2.14397271 314.136255,1.77903967 C314.655477,1.41410663 315.347762,1.09479501 316.213132,0.821095232 C317.078501,0.547395453 318.008759,0.342123698 319.003934,0.205273808 C319.999109,0.0684239184 320.972635,0 321.924541,0 C326.337925,0 329.820984,1.20882256 332.373824,3.62650394 C334.926664,6.04418533 336.203064,8.94079787 336.203064,12.3164285 L336.203064,61.4452932 C344.337537,61.4452932 372.101823,60.6698167 381.188201,60.2136504 C382.399719,58.8451515 383.373245,58.3433761 384.108809,58.7083091 C384.844373,59.0732421 385.320319,59.9399451 385.536661,61.308444 C385.753003,62.6769429 385.774637,64.3647329 385.601563,66.3718646 C385.428489,68.3789963 385.082347,70.317674 384.563125,72.1879558 C384.043904,74.0582377 383.329985,75.6776037 382.421347,77.0461026 C381.512709,78.4146015 380.495915,79.0988407 379.370935,79.0988407 C368.726891,79.3725405 343.299093,79.6462375 336.203064,79.6462375 L336.203064,182.47473 C336.203064,187.036393 337.025153,190.320742 338.669355,192.327873 C340.313557,194.335005 342.520215,195.338556 345.289397,195.338556 C347.972043,195.338556 350.286871,194.335005 352.233952,192.327873 C354.181033,190.320742 355.868478,187.811864 357.296338,184.801167 C358.724197,181.790469 359.892428,178.528929 360.801066,175.016449 C361.071466,173.971176 361.328453,172.944087 361.572029,171.935179 C360.970936,168.130001 360.670391,164.108286 360.670391,159.870007 C360.670391,150.920459 361.832361,142.593814 364.156336,134.889821 C366.480312,127.185829 369.535863,120.519899 373.323082,114.891833 C377.1103,109.263766 381.413894,104.858256 386.23399,101.675169 C391.054087,98.4920823 396.003219,96.9005629 401.081535,96.9005629 C404.782681,96.9005629 408.117965,97.5925278 411.087489,98.9764786 C414.057013,100.360429 416.574615,102.320997 418.640371,104.85824 C420.706127,107.395483 422.276938,110.417063 423.352853,113.923072 C424.428767,117.429081 424.966716,121.304085 424.966716,125.5482 C424.966716,130.807213 424.127515,136.20454 422.449089,141.740343 C420.770662,147.276146 418.274578,152.512015 414.960762,157.448106 C411.646945,162.384197 407.558532,166.812773 402.695399,170.733966 C397.832265,174.65516 392.216076,177.63061 385.846663,179.660404 C386.707394,182.059252 387.847847,184.342736 389.268054,186.510926 C390.688261,188.679116 392.38818,190.547421 394.367863,192.115899 C396.347545,193.684376 398.649968,194.929913 401.275199,195.852547 C403.90043,196.775181 406.934463,197.236491 410.377389,197.236491 C415.541779,197.236491 419.97448,196.198543 423.675625,194.122617 C427.376771,192.046691 430.496876,189.301896 433.036034,185.888151 C435.575192,182.474406 437.619399,178.645533 439.168716,174.401417 C440.171859,171.653459 441.012618,168.886188 441.691002,166.099569 C441.703232,165.341648 441.807776,164.573909 442.004633,163.796349 C442.690012,160.972068 443.289709,157.532875 443.803743,153.478666 C444.317777,149.424456 444.724715,145.142547 445.024568,140.632808 C445.324421,136.12307 445.560017,131.613399 445.731361,127.10366 C445.902706,122.593922 446.031212,118.562549 446.116885,115.009422 C442.861336,113.0962 440.162698,110.659155 438.02089,107.698216 C435.879082,104.737277 434.808194,101.206979 434.808194,97.1072165 C434.808194,95.1939941 435.172296,93.4402332 435.90051,91.8458812 C436.628725,90.2515293 437.592524,88.8849623 438.791937,87.7461395 C439.99135,86.6073166 441.404922,85.7418243 443.032696,85.1496364 C444.660471,84.5574485 446.331056,84.261359 448.044503,84.261359 C449.586605,84.261359 451.192937,84.4891202 452.863547,84.9446493 C454.534158,85.4001784 456.119072,86.2201186 457.618338,87.4044943 C459.117603,88.5888701 460.466922,90.137646 461.666335,92.0508683 C462.865748,93.9640907 463.850965,96.3328067 464.622016,99.1570874 C466.763824,99.4304049 468.584334,99.6353899 470.083599,99.7720486 C471.582865,99.9087074 472.846513,100.022588 473.874581,100.113694 C474.902649,100.2048 475.75936,100.250352 476.444738,100.250352 L492.251204,100.250352 C493.022255,100.250352 494.157396,100.751426 495.656662,101.75359 C497.155928,102.755755 498.633754,104.053993 500.090183,105.648345 C501.546613,107.242697 502.767425,108.950906 503.752657,110.773022 C504.737889,112.595139 505.101991,114.326124 504.844974,115.966029 C504.844974,116.512664 504.545125,117.833678 503.945419,119.929112 C503.345713,122.024546 502.617509,124.666576 501.760785,127.85528 C500.904062,131.043984 499.961681,134.710938 498.933613,138.856253 C497.905545,143.001569 496.963163,147.351807 496.10644,151.907098 C495.249716,156.462389 494.521513,161.177045 493.921806,166.051207 C493.3221,170.925369 493.022251,175.685577 493.022251,180.331974 C493.022251,182.245197 493.236429,184.112838 493.664791,185.934955 C494.093152,187.757071 494.735685,189.374175 495.592408,190.786316 C496.449132,192.198456 497.541437,193.314486 498.869359,194.134438 C500.19728,194.95439 501.760776,195.364361 503.559895,195.364361 C506.558427,195.364361 509.128558,194.362211 511.270366,192.357883 C513.412175,190.353555 515.211267,187.848182 516.667696,184.84169 C518.124126,181.835198 519.302103,178.578213 520.201662,175.070639 C521.101222,171.563065 521.850843,168.260528 522.45055,165.16293 C522.964584,162.247543 523.821294,160.129364 525.020707,158.80833 C526.220119,157.487295 527.46235,156.826788 528.747435,156.826788 C529.775503,156.826788 530.846391,157.16843 531.960131,157.851724 C533.073871,158.535017 534.080506,159.423286 534.980065,160.516556 C535.879625,161.609826 536.607829,162.839736 537.164699,164.206323 C537.721569,165.572911 538,166.939478 538,168.306065 C538,168.761594 537.957164,169.126012 537.871492,169.399329 C537.78582,169.672647 537.742984,169.94596 537.742984,170.219278 C536.543572,174.865675 534.980075,179.739764 533.052448,184.84169 C531.12482,189.943616 528.661778,194.635496 525.663246,198.91747 C522.664714,203.199444 519.066531,206.752518 514.868586,209.576799 C510.670642,212.401079 505.744557,213.813198 500.090183,213.813198 C497.005979,213.813198 493.857568,213.312124 490.644856,212.30996 C487.432144,211.307796 484.519328,209.576811 481.906322,207.116954 C479.293316,204.657096 477.15154,201.400112 475.480929,197.345902 C473.810319,193.291693 472.975026,188.167067 472.975026,181.971871 C472.975026,172.952394 474.110168,163.409202 476.380484,153.342008 C478.650801,143.274814 481.927719,132.182845 486.211335,120.06577 L463.208429,120.06577 C463.122757,122.798945 462.972833,126.260915 462.758652,130.451783 C462.544471,134.642651 462.180369,139.106769 461.666335,143.844273 C461.152301,148.581776 460.48835,153.36476 459.674463,158.193369 C459.414269,159.737042 459.134375,161.243463 458.834781,162.712636 Z M46.4276429,215.919732 C40.7921399,215.919732 36.1104076,215.255868 32.3823055,213.928119 C28.6542035,212.60037 25.7064462,211.112398 23.538945,209.464158 C21.3714438,207.815918 19.8542158,206.236379 18.9872153,204.725492 C18.1202148,203.214606 17.6867211,202.230255 17.6867211,201.77241 C17.6867211,200.12417 18.0335161,198.361496 18.7271165,196.484334 C19.4207168,194.607172 20.2877043,192.867389 21.3281049,191.264933 C22.3685054,189.662478 23.4955891,188.311857 24.7093898,187.21303 C25.9231904,186.114204 27.0069248,185.564799 27.9606253,185.564799 C29.1744259,185.564799 30.1714615,186.388906 30.9517619,188.037146 L32.2522561,189.410673 C32.9458565,190.143224 33.9212174,190.898656 35.1783681,191.676991 C36.4355187,192.455327 37.9960962,193.164975 39.8601472,193.805957 C41.7241982,194.446939 43.9133415,194.767426 46.4276429,194.767426 C51.8897458,194.767426 56.3547313,193.004751 59.8227331,189.479349 C63.290735,185.953947 65.0247099,181.169544 65.0247099,175.125998 C65.0247099,170.913829 64.0926984,167.159561 62.2286474,163.863081 C60.3645964,160.566602 57.9153568,157.49909 54.8808552,154.660454 C51.8463535,151.821819 48.3784037,149.051902 44.4769016,146.35062 C40.5753995,143.649338 36.5872572,140.833637 32.512355,137.903432 C28.4374528,134.973228 24.4493104,131.814149 20.5478083,128.4261 C16.6463062,125.038051 13.1783564,121.146432 10.1438547,116.751125 C7.10935311,112.355819 4.66011353,107.388281 2.79606253,101.848364 C0.932011522,96.3084463 0,89.9673961 0,82.8250231 C0,76.6899078 0.997035582,70.5091007 2.99113666,64.2824165 C4.98523773,58.0557323 7.73792292,52.1267359 11.2492748,46.4952495 C14.7606267,40.863763 18.9004918,35.5986311 23.6689944,30.6996957 C28.437497,25.8007604 33.5960724,21.5428711 39.1448754,17.9259001 C44.6936784,14.3089291 50.4808197,11.4703363 56.5064729,9.41003635 C62.5321262,7.34973643 68.5793637,6.31960193 74.648367,6.31960193 C79.8503698,6.31960193 84.5321021,7.18949329 88.6937043,8.92930211 C92.8553066,10.6691109 96.3666058,13.1185419 99.2277073,16.2776684 C102.088809,19.436795 104.299627,23.2368467 105.860228,27.6779376 C107.420829,32.1190286 108.201117,37.0865661 108.201117,42.5806992 C108.201117,47.8001257 107.33413,52.9279063 105.600129,57.964195 C103.866128,63.0004837 101.568611,67.7619943 98.7075097,72.2488697 C95.8464081,76.7357451 92.6168798,80.879175 89.0188279,84.6792837 C85.420776,88.4793925 81.7360792,91.7758229 77.9646272,94.5686739 C74.1931752,97.3615249 70.5301531,99.5362533 66.9754512,101.092924 C63.4207493,102.649595 60.2995944,103.427919 57.611893,103.427919 C55.2709917,103.427919 53.1685471,102.855622 51.3044961,101.711011 C49.4404451,100.5664 47.8798677,99.1471038 46.622717,97.4530794 C45.3655663,95.759055 44.3902054,93.9734885 43.6966051,92.0963264 C43.0030047,90.2191642 42.6562097,88.5480571 42.6562097,87.082955 C42.6562097,85.8925595 42.8079325,85.1142356 43.1113827,84.7479601 C43.4148328,84.3816845 43.8483266,84.2214414 44.4118769,84.2672258 C44.9754272,84.3130103 45.6906918,84.4503615 46.5576923,84.6792837 C47.4246928,84.908206 48.4217284,85.0226653 49.548829,85.0226653 C53.1902309,85.0226653 57.2217226,83.6949364 61.643425,81.0394388 C66.0651274,78.3839411 70.2266672,74.9959431 74.1281693,70.8753433 C78.0296714,66.7547435 81.3025491,62.2221516 83.9469005,57.2774318 C86.5912519,52.332712 87.9134078,47.5254176 87.9134078,42.8554045 C87.9134078,38.0938225 86.8079988,34.3395545 84.5971476,31.5924879 C82.3862964,28.8454214 78.6365756,27.4719087 73.3478728,27.4719087 C70.053271,27.4719087 66.4769477,28.1357731 62.6187957,29.463522 C58.7606436,30.7912708 54.8808747,32.6455129 50.9793726,35.0263039 C47.0778705,37.407095 43.306475,40.2914716 39.6650731,43.6795203 C36.0236711,47.0675691 32.8158175,50.7989452 30.041416,54.8737606 C27.2670145,58.948576 25.0345218,63.3438166 23.3438709,68.0596142 C21.65322,72.7754118 20.8079072,77.6971655 20.8079072,82.8250231 C20.8079072,88.2275873 21.7399187,93.0577736 23.6039697,97.3157267 C25.4680207,101.57368 27.938935,105.442407 31.0167866,108.922025 C34.0946383,112.401643 37.5842628,115.606505 41.4857649,118.53671 C45.387267,121.466914 49.3754094,124.374183 53.4503116,127.258603 C57.5252138,130.143022 61.5133561,133.118967 65.4148582,136.186524 C69.3163603,139.254082 72.8059848,142.64208 75.8838365,146.35062 C78.9616881,150.05916 81.4326024,154.179698 83.2966534,158.712357 C85.1607044,163.245017 86.0927159,168.441473 86.0927159,174.301882 C86.0927159,179.979153 85.0740057,185.358744 83.0365546,190.440817 C80.9991035,195.522891 78.2030689,199.941023 74.648367,203.695347 C71.0936651,207.449672 66.8887759,210.425616 62.0335733,212.623269 C57.1783707,214.820922 51.9764459,215.919732 46.4276429,215.919732 Z M286.716298,79.6462375 L286.716298,182.47473 C286.716298,187.036393 287.538387,190.320742 289.182589,192.327873 C290.82679,194.335005 293.033449,195.338556 295.802631,195.338556 C298.485276,195.338556 300.800105,194.335005 302.747186,192.327873 C304.694267,190.320742 306.381712,187.811864 307.809571,184.801167 C309.237431,181.790469 310.405662,178.528929 311.3143,175.016449 C311.920059,172.674795 313.509734,167.28323 316.083327,158.841754 L316.083327,79.600616 C306.641372,79.6310305 292.510511,79.6462375 286.716298,79.6462375 Z M382.360718,159.039641 C382.360718,159.870011 382.403754,160.700369 382.489827,161.53074 C382.5759,162.36111 382.618936,163.237599 382.618936,164.160233 C385.889716,162.499492 388.859195,160.377466 391.527463,157.794091 C394.195731,155.210717 396.476635,152.258333 398.370244,148.936851 C400.263854,145.615369 401.727075,141.994086 402.759953,138.072892 C403.792831,134.151698 404.309262,130.069105 404.309262,125.824989 C404.309262,122.688034 403.814349,120.243091 402.824508,118.490087 C401.834667,116.737082 400.479035,115.860593 398.757572,115.860593 C396.605743,115.860593 394.690644,116.64482 393.012217,118.213298 C391.333791,119.781775 389.870569,121.834605 388.622508,124.371848 C387.374448,126.909091 386.341585,129.769213 385.52389,132.9523 C384.706195,136.135386 384.039138,139.341491 383.522699,142.570709 C383.00626,145.799928 382.661973,148.867639 382.489827,151.773936 C382.31768,154.680232 382.274644,157.10211 382.360718,159.039641 Z" id="Combined-Shape"></path>
        </g>
    </g>
</svg>
