<?xml version="1.0" encoding="UTF-8"?>
<svg width="184px" height="168px" viewBox="0 0 184 168" version="1.1" xmlns="http://www.w3.org/2000/svg" xmlns:xlink="http://www.w3.org/1999/xlink">
    <!-- Generator: Sketch 61.2 (89653) - https://sketch.com -->
    <title>Slice</title>
    <desc>Created with Sketch.</desc>
    <defs>
        <linearGradient x1="50%" y1="0%" x2="50%" y2="84.8072719%" id="linearGradient-1">
            <stop stop-color="#008BEC" offset="0%"></stop>
            <stop stop-color="#00C6FF" offset="100%"></stop>
        </linearGradient>
        <path d="M15.5253967,0.00262732591 L0.965871568,1.0364784 C0.390758881,1.07731633 -0.0411582745,1.57549558 0.00306323518,2.14699491 C0.394956512,7.21165114 3.50620937,9.68601808 8.91380623,9.30203235 C14.3255887,8.91774941 17.0286483,6.02387878 16.6363941,0.954558317 C16.592513,0.387458453 16.0960822,-0.0378962292 15.5253967,0.00262732591 Z" id="path-2"></path>
        <linearGradient x1="50%" y1="0%" x2="50%" y2="84.8072719%" id="linearGradient-4">
            <stop stop-color="#008BEC" offset="0%"></stop>
            <stop stop-color="#00C6FF" offset="100%"></stop>
        </linearGradient>
        <linearGradient x1="50%" y1="0%" x2="50%" y2="84.8072719%" id="linearGradient-5">
            <stop stop-color="#008BEC" offset="0%"></stop>
            <stop stop-color="#00C6FF" offset="100%"></stop>
        </linearGradient>
    </defs>
    <g id="Page-1" stroke="none" stroke-width="1" fill="none" fill-rule="evenodd">
        <g id="Group-7" transform="translate(8.000000, 0.000000)">
            <g id="Path-28-Copy-2" transform="translate(0.000000, 29.000000)">
                <ellipse id="Oval" fill="#0799FF" opacity="0.0734747024" cx="58.6502184" cy="110.886272" rx="54.8063676" ry="22.0463014"></ellipse>
                <g id="Group-6" transform="translate(0.367292, 0.700601)">
                    <g id="Group" transform="translate(55.672019, 37.328758)" fill="#0799FF" fill-opacity="0.106889205">
                        <path d="M0.0933461405,1.29433308 C4.50710845,0.903946611 8.90463761,0.225755047 13.3346331,0.123173663 C13.7046939,0.1146045 14.371829,0.797469406 14.0455474,0.971254623 L13.7571193,3.37415068 C9.13096521,5.83814839 4.39577105,4.04354366 0.832697028,1.30644853 L0.0933461405,1.29433308 Z" id="Path-65"></path>
                        <path d="M0.0933461405,1.29433308 C4.50710845,0.903946611 8.90463761,0.225755047 13.3346331,0.123173663 C13.7046939,0.1146045 14.371829,0.797469406 14.0455474,0.971254623 L13.7571193,3.37415068 C9.13096521,5.83814839 4.39577105,4.04354366 0.832697028,1.30644853 L0.0933461405,1.29433308 Z" id="Path-65"></path>
                        <path d="M0.0933461405,1.29433308 C4.50710845,0.903946611 8.90463761,0.225755047 13.3346331,0.123173663 C13.7046939,0.1146045 14.371829,0.797469406 14.0455474,0.971254623 L13.7571193,3.37415068 C9.13096521,5.83814839 4.39577105,4.04354366 0.832697028,1.30644853 L0.0933461405,1.29433308 Z" id="Path-65"></path>
                        <path d="M0.0933461405,1.29433308 C4.50710845,0.903946611 8.90463761,0.225755047 13.3346331,0.123173663 C13.7046939,0.1146045 14.371829,0.797469406 14.0455474,0.971254623 L13.7571193,3.37415068 C9.13096521,5.83814839 4.39577105,4.04354366 0.832697028,1.30644853 L0.0933461405,1.29433308 Z" id="Path-65"></path>
                    </g>
                    <path d="M56.3319333,9.75578135 L56.271024,9.67083717 C51.9339957,3.82215926 38.1325435,0.158820711 26.0887306,2.32701203 C10.227796,5.18238191 0.155994913,16.654658 0.155994913,36.630361 C0.155994913,66.322067 19.5848586,88.7567291 58.3256312,103.90298 C58.4711766,103.959883 58.6344884,103.949085 58.7712774,103.873515 C95.7263777,83.4573494 114.24924,59.991757 114.24924,33.4752653 C114.24924,15.5076315 103.537837,4.27606655 87.3372862,1.14508499 C74.1511494,-1.40331923 60.357362,2.37259017 56.4515807,9.52951483 L56.3319333,9.75578135 Z" id="Path" fill="#04B5FF" fill-rule="nonzero"></path>
                    <path d="M87.436456,3.20228392 C102.996996,6.19147109 113.209273,16.8352109 113.209273,33.9687424 L113.203849,34.7366661 C112.849472,59.7941529 95.1301922,82.1054921 59.9616545,101.669322 L58.7729893,102.185484 C20.8227892,87.4376359 2.45288552,65.7781231 2.45288552,37.0702956 C2.45288552,17.9447717 12.0432235,7.08666574 27.2441966,4.36657931 C39.3894085,2.19329567 53.404331,6.17401414 56.5946141,11.9884752 C56.8073765,12.3762459 57.3797087,12.337267 57.5372878,11.9242741 C60.276102,4.74622045 74.1515088,0.650239176 87.436456,3.20228392 Z" id="Path" fill="url(#linearGradient-1)"></path>
                    <path d="M56.0818475,10.2986856 C56.3155344,10.1327479 56.6402899,10.1865556 56.8072091,10.4188684 C58.6003995,12.9145734 59.5039798,15.4297215 59.5039798,17.9562828 C59.5039798,18.2417729 59.2711754,18.4732083 58.9839967,18.4732083 C58.696818,18.4732083 58.4640137,18.2417729 58.4640137,17.9562828 C58.4640137,15.6582057 57.6343171,13.3487155 55.9609539,11.0197821 C55.7940347,10.7874693 55.8481606,10.4646234 56.0818475,10.2986856 Z" id="Path-34" fill="#04B5FF" fill-rule="nonzero"></path>
                    <path d="M41.5431089,35.7435913 C45.5344933,29.9720786 49.8257784,29.3084705 54.0538868,33.8772173 C54.248323,34.0873183 54.2346168,34.4143338 54.0232731,34.6076267 C53.8119294,34.8009196 53.4829797,34.787294 53.2885435,34.577193 C49.5435786,30.5305142 46.0351181,31.0730657 42.4000845,36.3292977 C42.2373895,36.5645535 41.9136586,36.6241512 41.6770113,36.4624128 C41.440364,36.3006745 41.3804139,35.9788471 41.5431089,35.7435913 Z" id="Path-34-Copy" fill="#FFFFFF" fill-rule="nonzero"></path>
                    <path d="M71.9469126,32.3978088 C75.5101061,26.6014129 79.4032061,25.9241264 83.1927899,30.5308804 C83.3745885,30.7518813 83.3417491,31.0775482 83.119441,31.2582778 C82.8971329,31.4390074 82.5695397,31.4063611 82.3877411,31.1853602 C79.0901486,27.1766885 76.0501414,27.7055616 72.8342968,32.9369105 C72.6845474,33.180514 72.3645039,33.2573116 72.1194595,33.1084428 C71.8744151,32.959574 71.7971633,32.6414123 71.9469126,32.3978088 Z" id="Path-34-Copy-2" fill="#FFFFFF" fill-rule="nonzero"></path>
                    <g id="Path-36" transform="translate(55.491156, 35.519519)">
                        <mask id="mask-3" fill="white">
                            <use xlink:href="#path-2"></use>
                        </mask>
                        <use id="Path" fill="#04B5FF" fill-rule="nonzero" xlink:href="#path-2"></use>
                        <path d="M2.98990249,0.458619972 C-2.3342138,0.458619972 -6.62978379,4.52062407 -6.62978379,9.50481688 C-6.62978379,14.4890097 -2.3342138,18.5510138 2.98990249,18.5510138 C8.31401878,18.5510138 12.6095888,14.4890097 12.6095888,9.50481688 C12.6095888,4.52062407 8.31401878,0.458619972 2.98990249,0.458619972 Z" id="Oval" fill="#FFFFFF" fill-rule="nonzero" opacity="0.419642857" mask="url(#mask-3)"></path>
                    </g>
                    <g id="Group-5-Copy" transform="translate(89.590911, 59.455191) scale(-1, 1) translate(-89.590911, -59.455191) translate(64.090911, 45.455191)" fill-rule="nonzero">
                        <path d="M43.0356686,0 C39.0830557,0 35.8788299,3.18538497 35.8788299,7.11475646 C35.8788299,11.044128 39.0830557,14.2295129 43.0356686,14.2295129 C46.9882815,14.2295129 50.1925074,11.044128 50.1925074,7.11475646 C50.1925074,3.18538497 46.9882815,0 43.0356686,0 Z" id="Oval" fill="#04B5FF"></path>
                        <path d="M43.0356686,1.03385108 C46.4139241,1.03385108 49.1525413,3.75636515 49.1525413,7.11475646 C49.1525413,10.4731478 46.4139241,13.1956619 43.0356686,13.1956619 C39.6574132,13.1956619 36.918796,10.4731478 36.918796,7.11475646 C36.918796,3.75636515 39.6574132,1.03385108 43.0356686,1.03385108 Z" id="Path" fill="#FFFFFF"></path>
                        <path d="M1.31566,4.77571686 C0.507303527,5.5793202 0.172574146,6.57298621 0.326335,7.70874505 C3.50960683,21.0811288 11.5130974,27.7998919 24.2409087,27.7998919 C36.9752874,27.7998919 43.7040521,22.7596412 44.197935,12.748302 C44.1985586,12.1223079 43.7243104,11.6508484 42.8711529,11.2267779 C42.0314527,10.8093965 41.165834,10.8093965 40.3261338,11.2267779 C40.1740173,11.3023889 40.0687092,11.4471728 40.0441461,11.6144716 C38.9119537,19.3258089 33.704386,23.1475621 24.2409087,23.1475621 C14.7892014,23.1475621 8.21075626,17.1108571 4.45885662,4.90411307 C4.42729807,4.80143785 4.36436414,4.71107856 4.27879297,4.64558125 C3.25081092,3.85875014 2.19804213,3.89852315 1.31566,4.77571686 Z" id="Path-2" fill="#04B5FF"></path>
                        <path d="M3.47817481,5.34694983 L3.51560535,5.37189019 L3.46428342,5.20622352 C7.33880173,17.8119053 14.2799157,24.1814132 24.2409087,24.1814132 L24.5381017,24.1801647 C34.1058317,24.099432 39.6464312,20.1034826 40.9951314,12.2542238 L41.0287419,12.0500512 L41.116678,12.0209931 C41.5475798,11.8905039 41.968529,11.9340003 42.406066,12.1514824 C42.9395299,12.416646 43.1585925,12.6344205 43.1585925,12.7229812 C42.6953958,22.0996348 36.4657159,26.7660409 24.2409087,26.7660409 C12.0095339,26.7660409 4.41353321,20.389357 1.34765702,7.52066202 C1.24637697,6.75366377 1.47276211,6.08162473 2.05102707,5.50675997 C2.50942646,5.05105598 2.93626347,4.99507705 3.47817481,5.34694983 Z" id="Path" fill="#FFFFFF"></path>
                    </g>
                    <g id="Group-5" transform="translate(14.932479, 46.575112)" fill-rule="nonzero">
                        <path d="M47.715516,0 C43.7629031,0 40.5586773,3.18538497 40.5586773,7.11475646 C40.5586773,11.044128 43.7629031,14.2295129 47.715516,14.2295129 C51.6681289,14.2295129 54.8723547,11.044128 54.8723547,7.11475646 C54.8723547,3.18538497 51.6681289,0 47.715516,0 Z" id="Oval" fill="#04B5FF"></path>
                        <path d="M47.715516,1.03385108 C51.0937715,1.03385108 53.8323887,3.75636515 53.8323887,7.11475646 C53.8323887,10.4731478 51.0937715,13.1956619 47.715516,13.1956619 C44.3372605,13.1956619 41.5986434,10.4731478 41.5986434,7.11475646 C41.5986434,3.75636515 44.3372605,1.03385108 47.715516,1.03385108 Z" id="Path" fill="#FFFFFF"></path>
                        <path d="M1.79149747,7.12361782 C0.564641293,7.93671265 0.122274108,9.03612781 0.546666857,10.3018198 C5.14137076,21.898737 13.826962,27.7138218 26.5191351,27.7138218 C39.2266635,27.7138218 46.7309244,22.7403979 48.8668636,12.8312922 L48.8784059,12.7229812 C48.8784059,12.1223079 48.4041578,11.6508484 47.5510003,11.2267779 C46.7113001,10.8093965 45.8456814,10.8093965 45.0059812,11.2267779 C44.884724,11.28705 44.7919398,11.3920173 44.7474023,11.5193095 C42.0504979,19.2273186 36.0136864,23.061492 26.5191351,23.061492 C17.1214117,23.061492 9.89176747,17.9474225 4.7821208,7.64243463 L4.62495131,7.32254973 C4.10334529,6.28547179 3.05615269,6.28547179 1.79149747,7.12361782 Z" id="Path-2" fill="#04B5FF"></path>
                        <path d="M3.673348,7.74558657 L3.69179679,7.77887843 C8.97345425,18.6301211 16.5990848,24.0953431 26.5191351,24.0953431 L26.8156369,24.0941155 C36.3707775,24.0147178 42.6534873,20.0839257 45.5561567,12.3379603 L45.6539911,12.0707282 L45.6885772,12.0572402 C46.1573842,11.8844627 46.611915,11.9158768 47.0859133,12.1514824 L47.1822767,12.2006253 C47.5840874,12.410998 47.7822777,12.5867105 47.8279851,12.6838739 L47.8322001,12.6946574 L47.8499822,12.6146703 C45.826057,22.0041179 38.7707928,26.6799708 26.5191351,26.6799708 C14.2521222,26.6799708 5.9516008,21.1226938 1.52376267,9.94888767 C1.26434734,9.17287714 1.51529087,8.54920717 2.36836686,7.98383391 L2.55505481,7.86442894 C3.20723446,7.46390248 3.51000625,7.4694772 3.673348,7.74558657 Z" id="Path" fill="#FFFFFF"></path>
                    </g>
                    <path d="M31.8466036,7.09225018 C40.4706993,6.54790821 48.9190975,9.78121883 53.2797146,15.2721893 C53.9025348,16.0564561 53.767896,17.1941568 52.9789903,17.8133149 C52.1900847,18.432473 51.0456547,18.2986258 50.4228345,17.514359 C46.8508029,13.0163902 39.5713252,10.2304405 32.0772427,10.7034574 C23.5721286,11.2402894 16.0437871,15.7244187 11.3154249,24.0063566 C10.8192894,24.8753601 9.70845882,25.1799943 8.83431536,24.6867761 C7.9601719,24.1935579 7.65373589,23.089259 8.14987136,22.2202555 C13.4976969,12.8532998 22.1413889,7.704831 31.8466036,7.09225018 Z" id="Path-37" fill="#FFFFFF" fill-rule="nonzero" opacity="0.262788318"></path>
                    <path d="M62.5996545,8.33982957 C62.9096657,7.38932905 63.9360698,6.86863209 64.8921924,7.17682037 C66.7134868,7.76388068 68.4481084,8.53906501 70.0938757,9.501471 C70.9602277,10.0080933 71.2494171,11.1169792 70.7397983,11.9782371 C70.2301794,12.839495 69.1147346,13.1269839 68.2483826,12.6203617 C66.8311886,11.7916199 65.3389691,11.1247626 63.7695427,10.6188872 C62.8134202,10.310699 62.2896434,9.29033009 62.5996545,8.33982957 Z" id="Path-37-Copy" fill="#FFFFFF" fill-rule="nonzero" opacity="0.262788318" transform="translate(66.750898, 9.979285) scale(-1, 1) translate(-66.750898, -9.979285) "></path>
                </g>
            </g>
            <path d="M139.040445,19.7818712 C143.637562,20.6659145 146.653144,23.8214011 146.650236,28.9036538 L146.648501,29.131441 C146.539538,36.5642055 141.300287,43.1853233 130.905825,48.9944046 L130.649108,49.1368818 L130.716245,49.1633137 C119.505722,44.7951255 113.919984,38.3578493 113.924857,29.8423583 C113.928109,24.1692286 116.763581,20.9468115 121.255427,20.1373959 C124.844305,19.4906924 128.984574,20.6691108 129.92621,22.393293 C129.989008,22.50828 130.15812,22.4966212 130.204749,22.3740901 C131.015198,20.2444295 135.115617,19.0271115 139.040445,19.7818712 Z" id="Path" fill="url(#linearGradient-4)" transform="translate(130.287547, 34.360236) rotate(15.000000) translate(-130.287547, -34.360236) "></path>
            <path d="M108.022356,5.25952607 C111.360349,5.906993 113.552906,8.20285981 113.556567,11.8950905 L113.555568,12.0605749 C113.484916,17.4603217 109.689332,22.2645927 102.150723,26.4730765 L101.964537,26.5762944 L102.013301,26.5955732 C93.8707622,23.4093905 89.8088334,18.7264035 89.8026938,12.5399427 C89.7986136,8.41844289 91.8531861,6.08058677 95.112841,5.49764398 C97.7172268,5.03188672 100.723935,5.89269774 101.409414,7.1463763 C101.45513,7.22998506 101.577872,7.22170678 101.611581,7.13274137 C102.197456,5.58647152 105.172515,4.7067455 108.022356,5.25952607 Z" id="Path-Copy" fill="url(#linearGradient-5)" transform="translate(101.679630, 15.844570) rotate(-30.000000) translate(-101.679630, -15.844570) "></path>
        </g>
    </g>
</svg>