<?xml version="1.0" encoding="UTF-8"?>
<svg width="167px" height="162px" viewBox="0 0 167 162" version="1.1" xmlns="http://www.w3.org/2000/svg" xmlns:xlink="http://www.w3.org/1999/xlink">
    <!-- Generator: Sketch 61.2 (89653) - https://sketch.com -->
    <title>Artboard</title>
    <desc>Created with Sketch.</desc>
    <defs>
        <linearGradient x1="54.4715723%" y1="48.2694517%" x2="57.2609846%" y2="73.8708841%" id="linearGradient-1">
            <stop stop-color="#F8FCFF" offset="0%"></stop>
            <stop stop-color="#EDF8FF" stop-opacity="0" offset="100%"></stop>
        </linearGradient>
        <linearGradient x1="54.4715723%" y1="47.8041123%" x2="57.2609846%" y2="80.2896945%" id="linearGradient-2">
            <stop stop-color="#F8FCFF" offset="0%"></stop>
            <stop stop-color="#EDF8FF" stop-opacity="0" offset="100%"></stop>
        </linearGradient>
        <linearGradient x1="50%" y1="9.60730744%" x2="56.3624468%" y2="62.6963856%" id="linearGradient-3">
            <stop stop-color="#F8FCFF" offset="0%"></stop>
            <stop stop-color="#EDF8FF" stop-opacity="0" offset="100%"></stop>
        </linearGradient>
        <linearGradient x1="50%" y1="13.1821738%" x2="50%" y2="77.277766%" id="linearGradient-4">
            <stop stop-color="#FFFFFF" stop-opacity="0" offset="0%"></stop>
            <stop stop-color="#5BB6F6" stop-opacity="0.404092002" offset="100%"></stop>
        </linearGradient>
        <linearGradient x1="50%" y1="0%" x2="50%" y2="77.277766%" id="linearGradient-5">
            <stop stop-color="#FFFFFF" stop-opacity="0" offset="17.0581715%"></stop>
            <stop stop-color="#5BB6F6" stop-opacity="0.404092002" offset="100%"></stop>
        </linearGradient>
    </defs>
    <g id="Artboard" stroke="none" stroke-width="1" fill="none" fill-rule="evenodd">
        <g id="Group-3" transform="translate(0.000000, -38.000000)">
            <path d="M66.9333382,197.536276 C120.365169,211.165063 149.509804,160.489538 149.509804,114.79007 C149.509804,69.0906028 130.080047,39.8317428 44.589118,70.9832555 C-40.9018112,102.134768 13.5015074,183.907489 66.9333382,197.536276 Z" id="Oval-Copy-17" fill="#0888E1" opacity="0.106515067"></path>
            <g id="Group-8" transform="translate(47.825141, 41.000000) rotate(90.000000) translate(-47.825141, -41.000000) translate(6.825141, 8.000000)">
                <polygon id="Star-Copy-2" fill="#62D0FD" points="76.9607843 38.0274108 73.8411956 39.2764515 75.0902363 36.1568627 73.8411956 33.037274 76.9607843 34.2863147 80.0803731 33.037274 78.8313323 36.1568627 80.0803731 39.2764515"></polygon>
                <path d="M70.2454896,61.9898045 L68.0773389,62.8579024 L69.3773917,64.1579553 L70.2454896,61.9898045 Z M70.2454896,59.3435288 L69.3773917,57.1753781 L68.0773389,58.4754309 L70.2454896,59.3435288 Z M72.8917653,59.3435288 L75.059916,58.4754309 L73.7598632,57.1753781 L72.8917653,59.3435288 Z M72.8917653,61.9898045 L73.7598632,64.1579553 L75.059916,62.8579024 L72.8917653,61.9898045 Z" id="Star-Copy-6" stroke-opacity="0.566434556" stroke="#62D0FD" stroke-width="2"></path>
                <path d="M54.00685,11.831991 L52.6027551,8.32514102 L54.00685,4.81829106 L50.5,6.22238588 L46.99315,4.81829106 L48.3972449,8.32514102 L46.99315,11.831991 L50.5,10.4278962 L54.00685,11.831991 Z" id="Star-Copy-7" stroke-opacity="0.566434556" stroke="#62D0FD" stroke-width="2"></path>
            </g>
            <g id="Group-12" transform="translate(13.766317, 34.033613)">
                <path d="M128.051489,113.926963 C131.21295,120.206908 132.793681,124.198794 132.793681,125.902619 C132.793681,126.515511 132.300283,127.229199 131.501432,127.935921 C131.198646,128.203788 129.6913,126.656452 129.310984,126.91645 C128.840446,127.238126 129.47908,129.363489 128.924912,129.653024 C126.180922,131.086669 122.649314,131.990067 120.683048,131.014096 C117.15192,129.261394 117.049859,114.401796 112.205606,114.401796" id="Path-7-Copy-2" stroke="#C45857" stroke-width="2" fill="#E39796" stroke-linecap="round" transform="translate(122.499643, 122.674447) rotate(-20.000000) translate(-122.499643, -122.674447) "></path>
                <path d="M82.6079928,127.541999 C85.7694538,133.821945 87.3501843,137.81383 87.3501843,139.517656 C87.3501843,140.144205 86.8345528,140.876092 86.0040806,141.598189 C85.6864708,141.874352 84.080603,140.848514 83.6821253,141.115372 C83.162885,141.463105 83.8267329,143.09804 83.2141039,143.404791 C80.5117208,144.75791 77.1425345,145.573693 75.2395519,144.629133 C71.7084236,142.87643 71.6063621,128.016833 66.7621092,128.016833" id="Path-7-Copy-3" stroke="#C45857" stroke-width="2" fill="#E39796" stroke-linecap="round" transform="translate(77.056147, 136.289483) rotate(4.000000) translate(-77.056147, -136.289483) "></path>
                <path d="M23.7945665,76.748827 C19.8015891,90.5708906 21.8329353,102.957702 29.8886052,113.909261 L35.4457139,119.570543 C32.6393326,122.171456 31.371124,124.190265 31.6410882,125.626972 C32.0460345,127.782031 36.2487537,131.018022 39.7742781,133.041366 C40.3965808,133.398514 42.3968895,130.005251 43.094522,130.368866 C43.9984087,130.839983 43.6163483,135.041011 44.5463693,135.19181 C46.9651081,135.583998 49.2807429,134.260771 50.4972547,127.934153 C52.3961411,128.474618 54.9279897,129.195239 58.0928004,130.096015 L79.6645986,130.116421 C78.3941058,134.51435 78.301072,137.207608 79.3854973,138.196194 C81.0121353,139.679072 84.5446374,142.259105 86.7157723,141.857157 C87.6308826,141.68774 88.9287038,139.502742 90.3537107,139.840614 C92.3095882,140.304358 94.3763413,143.213092 94.8488372,141.577503 C95.3933341,139.692676 95.8493658,135.742868 96.2169323,129.728077 L112.769266,129.339733 L125.663377,123.830572 L134.951385,115.912341 C139.896812,115.251522 143.040457,113.773178 144.382321,111.477309 C145.126213,110.204542 147.805909,108.894519 148.830958,106.633526 C149.380276,105.421873 149.696681,103.132831 149.780173,99.7663995 C149.648919,98.4082501 149.290876,97.2856815 148.706044,96.3986938 C148.121212,95.5117062 146.820756,94.1189049 144.804675,92.2202901 L144.427963,80.2161234 L140.504345,68.9003603 L144.853468,60.9591048 L147.575952,51.5349705 L144.322676,48.5692129 L136.093534,47.9064528 L125.459657,53.3993912 L115.560279,48.5420046 L114.212742,38.979353 L111.099017,31.9737089 L103.636169,32.9093203 L95.7615217,38.8272315 L88.9690158,48.1128484 L82.7278596,48.376279 L56.4088453,47.0047094 L45.2809224,49.9568629 L36.4568323,55.6045414 L30.4810717,62.062918 C28.2013893,64.3142166 25.9725542,69.2095196 23.7945665,76.748827 Z" id="Path-17" fill="#FFC9C9" transform="translate(85.794901, 87.022725) rotate(-16.000000) translate(-85.794901, -87.022725) "></path>
                <path d="M104.735693,42.4203138 C109.637654,52.2242354 117.480792,53.2046276 119.441576,50.2634511 C121.40236,47.3222746 124.343537,34.5771766 127.284713,34.5771766 C125.323929,34.5771766 121.075563,37.5183531 114.539615,43.400706 C108.657262,42.0935165 105.389288,41.7667191 104.735693,42.4203138 Z" id="Path-25" fill="url(#linearGradient-1)" opacity="0.618373326" style="mix-blend-mode: screen;"></path>
                <path d="M37.0886347,62.028157 C32.1866739,67.9105099 28.2651053,73.7928629 41.9905955,77.7144315 C55.7160857,81.6360001 80.2258896,81.6360001 81.2062817,71.8320785 C82.1866739,62.028157 80.2258896,52.2242354 84.1474582,43.400706 C86.7618373,37.5183531 90.3566085,31.9627975 94.9317719,26.7340393 C88.3958242,28.6948236 84.1474582,32.9431897 82.1866739,39.4791374 C80.2258896,46.0150851 78.9187,49.2830589 78.2651053,49.2830589 L57.67687,54.1850197 C47.2193536,55.4922093 40.3566085,58.1065883 37.0886347,62.028157 Z" id="Path-24" fill="url(#linearGradient-2)" opacity="0.618373326" style="mix-blend-mode: screen;"></path>
                <path d="M24.3435366,97.3222746 C25.3239288,85.5575687 31.2062817,82.6163923 35.1278504,89.4791374 C39.049419,96.3418825 41.0102033,114.969333 46.8925562,116.930118 C50.8141249,118.237307 51.794517,127.060837 49.8337327,143.400706 L44.9317719,139.479137 L46.8925562,131.636 C42.9709876,129.021621 39.3762164,126.080445 36.1082425,122.812471 C31.2062817,117.91051 23.3631445,109.086981 24.3435366,97.3222746 Z" id="Path-23" fill="#FDB1AF"></path>
                <path d="M101.794517,138.498745 C98.7922232,135.907631 96.8314389,133.620049 95.9121641,131.636 C93.1506798,125.675953 90.3571863,118.346432 89.049419,117.91051 C86.1082425,116.930118 82.1866739,115.949726 73.3631445,116.930118 C67.4807915,117.583713 63.8860203,121.832079 62.5788307,129.675216 L63.5592229,135.557569 L77.2847131,133.596784 C85.1278504,130.982405 89.7030138,129.675216 91.0102033,129.675216 C91.6637981,136.864758 95.2585693,139.805935 101.794517,138.498745 Z" id="Path-22" fill="#FDB1AF"></path>
                <path d="M122.382752,119.871294 C126.304321,117.91051 122.382752,111.047765 113.559223,113.008549 C107.67687,114.315739 105.716086,118.564105 107.67687,125.753647 L115.520007,122.812471 C117.480792,122.158876 119.768373,121.178484 122.382752,119.871294 Z" id="Path-21" fill="#FDB1AF" opacity="0.501650856"></path>
                <path d="M127.128153,99.7689323 C126.651553,89.6203461 128.664524,83.9028328 133.167066,82.6163923 C139.165893,80.9024417 142.917436,79.9375859 147.695668,80.3766197 C147.809426,80.4659036 147.919725,80.5589697 148.028023,80.655608 C152.422732,84.5771766 150.225377,93.400706 149.1267,95.3614903 C148.028023,97.3222746 142.534637,102.224235 137.041252,102.224235 C133.378994,102.224235 130.082963,101.570641 127.153157,100.263451 Z" id="Combined-Shape" fill="#FDB1AF"></path>
                <path d="M127.153157,100.263451 C125.688254,99.6098563 124.955803,97.3222746 124.955803,93.400706 C124.955803,87.5183531 124.955803,80.655608 130.449189,79.6752158 C135.942574,78.6948236 144.931772,75.7536472 149.833733,80.655608 C143.95138,79.6752158 140.029811,80.655608 133.167066,82.6163923 C128.591903,83.9235818 126.587266,89.8059348 127.153157,100.263451 Z" id="Path-18-Copy" fill="url(#linearGradient-3)" opacity="0.393973214" style="mix-blend-mode: screen;"></path>
                <path d="M102.575618,64.3529587 C105.804247,64.3529587 108.457971,63.5393639 108.457971,60.4313901 C108.457971,57.3234163 105.840651,55.5294293 102.612022,55.5294293 C99.3833932,55.5294293 96.7660726,58.0489399 96.7660726,61.1569137 C96.7660726,64.2648875 99.3469896,64.3529587 102.575618,64.3529587 Z" id="Oval" fill="#FDB1AF" transform="translate(102.612022, 59.941194) rotate(-17.000000) translate(-102.612022, -59.941194) "></path>
                <path d="M129.688893,68.0766443 C132.308899,68.0766443 134.462375,67.2630494 134.462375,64.1550756 C134.462375,61.0471018 132.33844,59.2531148 129.718434,59.2531148 C127.098428,59.2531148 124.974493,61.7726254 124.974493,64.8805992 C124.974493,67.988573 127.068887,68.0766443 129.688893,68.0766443 Z" id="Oval-Copy" fill="#FDB1AF" transform="translate(129.718434, 63.664880) rotate(-11.000000) translate(-129.718434, -63.664880) "></path>
                <g id="Group-7" transform="translate(20.712258, 65.268302) scale(-1, 1) rotate(-36.000000) translate(-20.712258, -65.268302) translate(5.712258, 52.268302)" stroke="#C45857" stroke-linecap="round" stroke-width="2">
                    <g id="Group-6" transform="translate(14.868316, 12.625156) rotate(16.000000) translate(-14.868316, -12.625156) translate(2.368316, 3.125156)">
                        <path d="M6.37451687,5.43634523 C6.37451687,10.5248217 14.3325803,14.8075487 20.220933,11.6838142 C24.1465014,9.60132457 25.1026088,6.728243 23.0892551,3.06456953 C22.1767296,6.77556391 19.5615766,8.6310611 15.2437962,8.6310611 C10.9260158,8.6310611 8.97826752,6.77556391 9.40055145,3.06456953 C7.38319506,1.2534357 6.37451687,2.0440276 6.37451687,5.43634523 Z" id="Path-4" fill="#E39796"></path>
                        <path d="M3.14301133,18.9647756 C18.2902069,18.9647756 20.0436,2.703389 13.4646792,0.431985391 C6.88575834,-1.83941822 4.29022489,5.58617505 7.33197741,5.58617505 C10.3737299,5.58617505 11.6416373,5.4034535 9.84153972,8.55186512 C8.04144212,11.7002767 5.6620608,12.8783573 7.10542736e-14,11.3549167" id="Path-3" fill="#FFC9C9"></path>
                    </g>
                </g>
                <path d="M140.649321,69.2002846 C143.823461,75.0622706 145.625764,81.775673 145.625764,88.9100257 C145.625764,90.091479 145.576338,91.2613883 145.479442,92.4177988 M135.100967,116.511368 C127.509683,125.011748 116.466108,130.363142 104.172648,130.363142 C100.746294,130.363142 98.259831,130.363142 96.7132578,130.363142 M80.4078212,130.363142 C76.8556576,130.363142 71.5274121,130.363142 64.4230847,130.363142 C59.5657702,130.363142 54.9035813,129.52771 50.5723693,127.992697 M36.1612185,119.235609 C28.0450735,111.668478 22.9699688,100.881929 22.9699688,88.9100257 C22.9699688,79.101273 26.3055492,69.4627989 31.9495387,61.9171837 M36.8900753,56.4077696 C44.1561018,49.6634535 53.7528612,45.8954137 64.4230847,47.4569098 C73.8789201,48.8406906 81.6033288,49.4507579 89.3731148,49.1484893 M115.846455,49.1233562 C120.112485,50.5826494 124.150812,52.6643136 127.884458,55.2784555" id="Shape" stroke="#C45857" stroke-width="2" stroke-linecap="round" transform="translate(84.297866, 88.734572) rotate(-16.000000) translate(-84.297866, -88.734572) "></path>
                <path d="M59.9157747,46.1215861 L58.8109392,52.0452033 L55.6681075,55.7498012 L50.4872795,57.2353797 L45.11608,53.1687356 C42.4124061,47.4341022 41.0437806,44.5048897 41.0102033,44.3810982 C39.4877431,38.7681457 39.9384547,35.7283414 40.0298111,34.5771766 C40.7326268,25.7211285 47.1287469,30.6451313 47.8729484,28.6948236 C49.3318678,24.8714751 52.7196703,31.2544036 53.7553013,30.655608 C55.8055529,29.4701648 57.7352458,34.1937552 59.54438,44.8263791 L59.9157747,46.1215861 Z" id="Path-10" fill="#FFE715"></path>
                <path d="M66.3029828,60.366253 C67.4953084,60.366253 68.4618793,61.1289596 68.4618793,62.0698057 C68.4618793,63.0106519 67.4953084,63.7733585 66.3029828,63.7733585 C61.6429994,64.530493 58.1480118,64.9090603 55.8180201,64.9090603 C53.2065378,64.9090603 49.2893143,64.530493 44.0663497,63.7733585 C42.8740241,63.7733585 41.9074533,63.0106519 41.9074533,62.0698057 C41.9074533,61.1289596 42.8740241,60.366253 44.0663497,60.366253 C49.2893143,61.1233876 53.2065378,61.5019548 55.8180201,61.5019548 C58.1480118,61.5019548 61.6429994,61.1233876 66.3029828,60.366253 Z" id="Rectangle-Copy-8" stroke="#C45857" stroke-width="2" fill="#E39796" stroke-linecap="round" transform="translate(55.184666, 62.637657) scale(1, -1) rotate(18.000000) translate(-55.184666, -62.637657) "></path>
                <path d="M105.006921,121.349353 C108.843632,127.629298 110.761988,131.621184 110.761988,133.325009 C110.761988,133.888567 110.255724,134.537346 109.42052,135.187569 C109.013617,135.504351 106.592253,133.120581 106.049705,133.428361 C105.418646,133.786351 106.646088,136.832592 105.891523,137.150052 C102.587667,138.540048 98.409223,139.395409 96.0646703,138.436486 C91.7793356,136.683784 91.655475,121.824186 85.776548,121.824186" id="Path-7" stroke="#C45857" stroke-width="2" stroke-linecap="round" transform="translate(98.269268, 130.096836) rotate(17.000000) translate(-98.269268, -130.096836) "></path>
                <path d="M62.4070251,129.775911 C63.1663033,137.604846 62.9425225,142.208525 61.7356826,143.586949 C61.2920612,144.093642 60.2649934,144.368591 58.9267146,144.441199 C58.1909838,144.481116 57.5750927,140.537035 56.6964778,140.45953 C55.8791905,140.387434 54.8057576,144.189493 53.9403838,144.023955 C50.5229629,143.370232 47.0144735,142.018549 45.657118,140.211094 C42.9144147,136.558909 49.4534491,130.584133 44.4702312,127.579682" id="Path-7-Copy" stroke="#C45857" stroke-width="2" stroke-linecap="round"></path>
                <path d="M48.8880911,26.8313326 C52.7746081,25.7899435 57.3126095,31.6506471 59.466698,39.6898147 C61.6207864,47.7289824 60.6211138,55.0735013 56.7345968,56.1148904 C56.6349425,56.1415927 56.5348599,56.1637571 56.4344001,56.1814633 C56.3893411,56.202922 56.3411718,56.2203083 56.2909065,56.2337769 L56.2909065,56.2337769 L51.0035974,57.6505071 C46.8712461,58.7577673 42.096,52.9509751 39.9443261,44.9208185 C37.7926521,36.890662 39.0247404,29.4742094 43.1570917,28.3669492 L43.1570917,28.3669492 L48.4444008,26.950219 C48.4951109,26.9366313 48.5459673,26.9275633 48.5965423,26.9227682 C48.6914835,26.8886279 48.7888461,26.8579252 48.8880911,26.8313326 Z M46.0993273,29.4810607 L43.6326375,30.1417103 C42.6307735,30.410159 41.8522145,31.4187547 41.357332,32.9359121 L43.5815292,32.3406715 C44.0716159,32.2093531 44.5753643,32.5001924 44.7066826,32.9902791 C44.838001,33.4803658 44.5471617,33.9841142 44.057075,34.1154325 L44.057075,34.1154325 L41.1614121,34.8913231 C41.0782027,34.913619 40.9945994,34.9237453 40.912492,34.9227932 C40.8537398,35.3369712 40.8100834,35.7728419 40.7821153,36.226693 L42.5441534,35.7549938 C43.0342402,35.6236754 43.5379885,35.9145147 43.6693069,36.4046014 C43.8006252,36.8946882 43.509786,37.3984365 43.0196992,37.5297549 L43.0196992,37.5297549 L40.7556028,38.1366522 C40.8143522,40.067942 41.1227586,42.2197442 41.7190872,44.4452727 C43.6382819,51.6078051 47.7583481,56.6178858 50.5280516,55.875746 L50.5280516,55.875746 L52.9955602,55.2152205 C50.2464072,53.2836589 47.6374295,48.7852162 46.1559899,43.2564082 C44.6747241,37.728249 44.6847675,32.5285662 46.0993273,29.4810607 Z M57.6919369,40.1653605 C55.7751566,33.0118392 51.8482474,27.9403443 49.3636369,28.6060937 C46.8790263,29.271843 46.0139707,35.6273411 47.9307509,42.7808624 C49.8475312,49.9343838 53.7744404,55.0058787 56.259051,54.3401293 C58.7436615,53.6743799 59.6087171,47.3188819 57.6919369,40.1653605 Z" id="Combined-Shape-Copy" fill="#C88719" fill-rule="nonzero"></path>
                <g id="Group-11" transform="translate(29.113843, 19.635573) rotate(45.000000) translate(-29.113843, -19.635573) translate(18.113843, 3.635573)">
                    <path d="M21.0137012,19.4102081 L19.9088657,25.3338254 L16.766034,29.0384233 L11.585206,30.5240018 L6.21400651,26.4573577 C3.51033268,20.7227243 2.14170711,17.7935118 2.10812983,17.6697202 C0.5856696,12.0567678 1.03638127,9.01696351 1.12773767,7.86579867 C1.83055335,-0.990249364 8.22667342,3.93375344 8.97087492,1.98344573 C10.4297943,-1.83990278 13.8175969,4.54302567 14.8532279,3.94423004 C16.9034794,2.75878689 18.8331723,7.48237726 20.6423066,18.1150012 L21.0137012,19.4102081 Z" id="Path-10-Copy" fill="#FFE715"></path>
                    <path d="M9.9860176,0.119954659 C13.8725347,-0.921434448 18.410536,4.93926922 20.5646245,12.9784368 C22.718713,21.0176045 21.7190403,28.3621234 17.8325233,29.4035125 C17.732869,29.4302148 17.6327864,29.4523792 17.5323266,29.4700854 C17.4872677,29.4915441 17.4390983,29.5089304 17.388833,29.522399 L17.388833,29.522399 L12.101524,30.9391292 C7.9691726,32.0463894 3.19392656,26.2395972 1.0422526,18.2094406 C-1.10942136,10.1792841 0.12266692,2.76283151 4.25501828,1.6555713 L4.25501828,1.6555713 L9.54232733,0.238841109 C9.59303746,0.22525337 9.64389386,0.21618542 9.69446881,0.211390318 C9.78941006,0.177249987 9.88677261,0.146547274 9.9860176,0.119954659 Z M7.19725386,2.76968278 L4.73056407,3.43033238 C3.72870001,3.69878105 2.95014099,4.7073768 2.45525855,6.22453415 L4.6794557,5.62929355 C5.16954244,5.4979752 5.67329079,5.78881445 5.80460914,6.27890119 C5.93592748,6.76898793 5.64508824,7.27273629 5.1550015,7.40405463 L5.1550015,7.40405463 L2.25933868,8.17994515 C2.17612922,8.20224105 2.09252593,8.21236742 2.01041851,8.21141526 C1.95166633,8.62559329 1.90800996,9.06146397 1.88004182,9.51531508 L3.64207996,9.04361586 C4.1321667,8.91229751 4.63591505,9.20313676 4.7672334,9.6932235 C4.89855174,10.1833102 4.60771249,10.6870586 4.11762575,10.8183769 L4.11762575,10.8183769 L1.85352932,11.4252743 C1.91227876,13.3565641 2.2206851,15.5083663 2.81701368,17.7338948 C4.73620845,24.8964272 8.85627459,29.9065079 11.6259782,29.1643681 L11.6259782,29.1643681 L14.0934868,28.5038426 C11.3443338,26.572281 8.73535602,22.0738383 7.25391638,16.5450303 C5.77265058,11.0168711 5.78269403,5.81718824 7.19725386,2.76968278 Z M18.7898634,13.4539826 C16.8730832,6.30046132 12.946174,1.22896635 10.4615634,1.89471574 C7.97695284,2.56046513 7.11189721,8.91596321 9.02867747,16.0694845 C10.9454577,23.2230058 14.8723669,28.2945008 17.3569775,27.6287514 C19.841588,26.963002 20.7066437,20.607504 18.7898634,13.4539826 Z" id="Combined-Shape-Copy-2" fill="#C88719" fill-rule="nonzero"></path>
                </g>
                <g id="Group-10" transform="translate(97.504823, 63.794606)">
                    <path d="M3.73776118,19.7567377 C3.73776118,22.2485784 14.7730561,24.0284647 16.9089196,22.6045557 C19.0447832,21.1806467 16.5529424,13.3491471 11.925238,12.6371926 C7.29753373,11.925238 3.73776118,17.2648969 3.73776118,19.7567377 Z" id="Path-11" fill="#3E1111"></path>
                    <path d="M13.1132238,5.09629585 L17.0347924,5.09629585 L21.9367532,9.01786448 C19.9759689,9.67145925 18.341982,12.2858383 17.0347924,16.8610017 C15.7276029,21.4361651 15.0740081,25.6845311 15.0740081,29.6060998 L9.19165518,29.6060998 L4.28969439,27.6453155 C8.21126302,24.3773416 10.8256421,20.455773 12.1328316,15.8806096 C13.4400212,11.3054462 13.7668186,7.71067493 13.1132238,5.09629585 Z" id="Path-20" fill="#FFFFFF" opacity="0.387160528"></path>
                    <path d="M36.1110292,10.9786488 C38.7863414,9.39076219 43.1332319,12.2280423 42.9737743,10.9786488 C42.6543871,8.47616383 41.4826778,6.35667088 39.2763547,5.93159398 C36.6396253,5.42359367 34.4879192,8.35752376 33.7233446,10.698674 C33.528738,11.2945654 34.4296575,10.4320091 36.1110292,10.9786488 Z" id="Path-11-Copy" fill="#3E1111" transform="translate(38.337617, 8.590114) scale(-1, 1) translate(-38.337617, -8.590114) "></path>
                    <ellipse id="Oval" fill="#FFFFFF" cx="8.6477675" cy="17.7988628" rx="1.70621102" ry="1.9578749"></ellipse>
                    <ellipse id="Oval-Copy-9" fill="#FFFFFF" cx="36.9366498" cy="10.0793168" rx="1.69089196" ry="1.60189765"></ellipse>
                    <ellipse id="Oval" stroke="#C45857" stroke-width="2" fill="url(#linearGradient-4)" cx="12.5481982" cy="17.4428855" rx="12.5481982" ry="12.9931698"></ellipse>
                    <path d="M38.8882506,0.187872519 L42.8098192,0.187872519 L47.71178,4.10944115 C46.2147033,4.11374951 44.8125702,6.40348539 43.5053807,10.9786488 C42.5249885,10.9786488 39.583812,10.9786488 37.9078585,10.9721862 C39.215048,6.39702285 39.5418454,2.8022516 38.8882506,0.187872519 Z" id="Path-20" fill="#FFFFFF" opacity="0.387160528"></path>
                    <path d="M49.4808385,12.1032267 C49.4808385,5.41879916 45.4964273,0 40.5814071,0 C35.6663869,0 31.6819757,5.41879916 31.6819757,12.1032267" id="Shape" stroke="#C45857" stroke-width="2" fill="url(#linearGradient-5)"></path>
                    <path d="M24.8779297,14.9002174 C26.838714,12.9394331 30.7602826,11.6322436 36.6426356,10.9786488 C45.466165,9.99825663 54.1025199,11.9590409 54.1025199,23.7237468 C54.1025199,35.4884527 41.3785402,39.4975609 32.0271118,38.4296292 C28.7280948,38.0528819 26.4696426,36.6027413 24.5007219,35.8272649 C23.3328365,35.3672832 22.1074856,34.519486 20.8246694,33.2838734" id="Path-12" stroke="#C45857" stroke-width="2" stroke-linecap="round"></path>
                    <path d="M27.8191062,37.449237 C26.5119166,40.7172109 24.2243349,42.0244004 20.9563611,41.3708057" id="Path-19" stroke="#C45857" stroke-width="2" stroke-linecap="round"></path>
                </g>
                <g id="Group-9" transform="translate(130.621218, 83.605577)" fill="#FFC9C9" stroke="#C45857" stroke-width="2">
                    <path d="M4.27654894,6.69106063 C6.00577868,6.69106063 7.42709387,6.25530523 7.42709387,4.59069735 C7.42709387,2.92608946 6.02527619,1.96524324 4.29604645,1.96524324 C2.5668167,1.96524324 1.16499903,3.31467455 1.16499903,4.97928244 C1.16499903,6.64389033 2.54731919,6.69106063 4.27654894,6.69106063 Z" id="Oval" transform="translate(4.296046, 4.328152) rotate(-17.000000) translate(-4.296046, -4.328152) "></path>
                    <path d="M14.8663869,5.64466567 C16.5956166,5.64466567 18.0169318,5.20891027 18.0169318,3.54430238 C18.0169318,1.87969449 16.6151141,0.918848271 14.8858844,0.918848271 C13.1566546,0.918848271 11.754837,2.26827959 11.754837,3.93288747 C11.754837,5.59749536 13.1371571,5.64466567 14.8663869,5.64466567 Z" id="Oval-Copy-3" transform="translate(14.885884, 3.281757) scale(-1, 1) rotate(-17.000000) translate(-14.885884, -3.281757) "></path>
                </g>
                <path d="M82.9360038,58.0103462 C77.2720471,39.2298584 86.5132395,26.7095332 89.7923723,26.7095332 C91.9784609,26.7095332 96.3506379,30.5848719 102.908903,38.3355494" id="Path-13" stroke="#C45857" stroke-width="2" stroke-linecap="round" transform="translate(92.023876, 42.359940) rotate(19.000000) translate(-92.023876, -42.359940) "></path>
                <path d="M92.9709876,34.5771766 C91.6637981,40.4595295 92.3173928,43.7275034 94.9317719,44.3810982 C93.9513798,45.3614903 89.049419,49.2830589 89.049419,44.3810982 C89.049419,41.1131243 90.3566085,37.8451504 92.9709876,34.5771766 Z" id="Path-26" fill="#FDB1AF"></path>
                <path d="M92.2355691,33.2315282 C90.6456866,35.2188814 89.8507453,38.0011759 89.8507453,41.5784117 C89.8507453,46.9442653 90.7450542,48.1366773 92.2355691,48.1366773 C93.726084,48.1366773 94.620393,43.6651326 98.1976287,43.3670296" id="Path-14" stroke="#C45857" stroke-width="2" stroke-linecap="round" transform="translate(94.024187, 40.684103) rotate(19.000000) translate(-94.024187, -40.684103) "></path>
                <path d="M115.679554,47.1263498 C120.044295,37.3464054 125.207695,32.4564332 131.169754,32.4564332 C133.753313,32.6551685 135.631123,38.9225621 136.803184,51.2586139" id="Path-15" stroke="#C45857" stroke-width="2" stroke-linecap="round" transform="translate(126.241369, 41.857524) rotate(19.000000) translate(-126.241369, -41.857524) "></path>
                <path d="M128.265105,47.3222746 C130.22589,48.6294642 131.206282,48.3026668 131.206282,46.3418825 C131.206282,44.3810982 130.879484,42.0935165 130.22589,39.4791374 L127.284713,45.3614903 L128.265105,47.3222746 Z" id="Path-27" fill="#FDB1AF"></path>
                <path d="M130.575801,37.3330972 C128.787183,39.3204504 127.892874,41.5065389 127.892874,43.8913628 C127.892874,46.2761866 128.574,47.4347352 129.936251,47.3670085" id="Path-16" stroke="#C45857" stroke-width="2" stroke-linecap="round" transform="translate(129.234338, 42.351456) rotate(19.000000) translate(-129.234338, -42.351456) "></path>
            </g>
        </g>
    </g>
</svg>