<svg width="24px" height="24px" viewBox="0 0 24 24" version="1.1" xmlns="http://www.w3.org/2000/svg" xmlns:xlink="http://www.w3.org/1999/xlink">
    <g id="Page-1" stroke="none" stroke-width="1" fill="none" fill-rule="evenodd">
        <path d="M12,0 C18.627417,0 24,5.372583 24,12 C24,18.627417 18.627417,24 12,24 C5.372583,24 0,18.627417 0,12 C0,5.372583 5.372583,0 12,0 Z M12.9951923,4.8 C12.5240361,4.8 12.0545696,4.87077256 11.5867788,5.01231979 C11.118988,5.15386702 10.6697137,5.34888473 10.2389423,5.59737877 C9.80817092,5.8458728 9.40769416,6.13839937 9.0375,6.47496723 C8.66730584,6.8115351 8.34591482,7.1732615 8.07331731,7.56015727 C7.80071979,7.94705305 7.58702,8.35438842 7.43221154,8.78217562 C7.27740307,9.20996282 7.2,9.63459815 7.2,10.0560944 C7.2,10.5467914 7.27235505,10.9824358 7.41706731,11.3630406 C7.56177957,11.7436454 7.7519219,12.0849264 7.9875,12.3868938 C8.2230781,12.6888613 8.49230618,12.9562243 8.79519231,13.1889908 C9.09807844,13.4217574 9.40769073,13.6387932 9.72403846,13.8401048 C10.0403862,14.0414165 10.3499985,14.2348615 10.6528846,14.4204456 C10.9557707,14.6060298 11.2249988,14.7963293 11.4605769,14.9913499 C11.696155,15.1863706 11.8862974,15.3971155 12.0310096,15.6235911 C12.1757219,15.8500667 12.2480769,16.1079933 12.2480769,16.3973788 C12.2480769,16.812584 12.1134629,17.1412832 11.8442308,17.3834862 C11.5749987,17.6256893 11.2283675,17.746789 10.8043269,17.746789 C10.6091336,17.746789 10.4391834,17.7247709 10.2944712,17.6807339 C10.1497589,17.636697 10.0286063,17.5879426 9.93100962,17.5344692 C9.83341297,17.4809958 9.75769258,17.4290959 9.70384615,17.378768 L9.70384615,17.378768 L9.60288462,17.2844037 C9.54230739,17.1711659 9.46490432,17.1145478 9.37067308,17.1145478 C9.29663425,17.1145478 9.21250047,17.1522932 9.11826923,17.2277851 C9.02403799,17.3032769 8.93653887,17.3960676 8.85576923,17.5061599 C8.7749996,17.6162522 8.70769258,17.7357792 8.65384615,17.8647444 C8.59999973,17.9937097 8.57307692,18.1148094 8.57307692,18.2280472 C8.57307692,18.2595021 8.60673043,18.3271292 8.67403846,18.4309305 C8.74134649,18.5347318 8.85913377,18.6432498 9.02740385,18.7564875 C9.19567392,18.8697253 9.42451778,18.9719524 9.71394231,19.0631717 C10.0033668,19.154391 10.3668247,19.2 10.8043269,19.2 C11.2350983,19.2 11.6389404,19.1245093 12.0158654,18.9735256 C12.3927903,18.8225418 12.7192294,18.6180878 12.9951923,18.3601573 C13.2711552,18.1022268 13.4882204,17.7986911 13.6463942,17.4495413 C13.8045681,17.1003914 13.8836538,16.7308014 13.8836538,16.3407602 C13.8836538,15.9381369 13.8112988,15.5811287 13.6665865,15.2697248 C13.5218743,14.9583209 13.3300493,14.6752306 13.0911058,14.4204456 C12.8521623,14.1656606 12.5812515,13.9328975 12.2783654,13.7221494 C11.9754793,13.5114013 11.665867,13.3069473 11.3495192,13.1087811 C11.0331715,12.910615 10.7235592,12.7108791 10.4206731,12.5095675 C10.1177869,12.3082559 9.84687619,12.0880746 9.60793269,11.849017 C9.36898919,11.6099595 9.17716419,11.3441692 9.03245192,11.0516383 C8.88773966,10.7591073 8.81538462,10.4272627 8.81538462,10.0560944 C8.81538462,9.70379902 8.88100896,9.36566348 9.01225962,9.04167759 C9.14351027,8.7176917 9.31682585,8.41572879 9.53221154,8.13577982 C9.74759723,7.85583084 9.9966332,7.59947692 10.2793269,7.36671035 C10.5620206,7.13394379 10.8548062,6.93578063 11.1576923,6.77221494 C11.4605784,6.60864925 11.7617773,6.48125865 12.0612981,6.39003932 C12.3608188,6.29881999 12.6384603,6.25321101 12.8942308,6.25321101 C13.3048097,6.25321101 13.5959126,6.34757442 13.7675481,6.53630406 C13.9391836,6.72503371 14.025,6.98296036 14.025,7.31009174 C14.025,7.63093214 13.9223568,7.96120407 13.7170673,8.30091743 C13.5117778,8.64063079 13.2576938,8.95203004 12.9548077,9.23512451 C12.6519216,9.51821898 12.3288479,9.75098205 11.9855769,9.93342071 C11.642306,10.1158594 11.3293283,10.2070773 11.0466346,10.2070773 C10.9591342,10.2070773 10.8817311,10.1992137 10.8144231,10.1834862 C10.747115,10.1677588 10.6915868,10.1583224 10.6478365,10.1551769 C10.6040863,10.1520314 10.5704328,10.1630405 10.546875,10.1882045 C10.5233172,10.2133684 10.5115385,10.266841 10.5115385,10.3486239 C10.5115385,10.4492797 10.5384613,10.5640885 10.5923077,10.6930537 C10.6461541,10.822019 10.7218745,10.9446914 10.8194712,11.0610747 C10.9170678,11.177458 11.0382204,11.2749668 11.1829327,11.3536042 C11.327645,11.4322415 11.4908645,11.4715596 11.6725962,11.4715596 C11.881251,11.4715596 12.1235563,11.418087 12.3995192,11.3111402 C12.6754821,11.2041934 12.9598543,11.0547847 13.2526442,10.8629096 C13.5454342,10.6710344 13.831489,10.4445622 14.1108173,10.1834862 C14.3901456,9.92241023 14.6408643,9.63774728 14.8629808,9.32948886 C15.0850973,9.02123044 15.2634609,8.69410396 15.3980769,8.34809961 C15.532693,8.00209526 15.6,7.6498052 15.6,7.29121887 C15.6,6.91375958 15.5394237,6.57247859 15.4182692,6.26736566 C15.2971148,5.96225273 15.1254819,5.70118064 14.9033654,5.48414155 C14.6812489,5.26710245 14.4086555,5.09882104 14.0855769,4.97929227 C13.7624984,4.85976349 13.3990405,4.8 12.9951923,4.8 Z" id="Combined-Shape-Copy-26" fill="#0799FF"></path>
    </g>
</svg>