<svg width="394px" height="420px" viewBox="0 0 394 420" version="1.1" xmlns="http://www.w3.org/2000/svg" xmlns:xlink="http://www.w3.org/1999/xlink">
    <defs>
        <linearGradient x1="77.5641594%" y1="86.3061709%" x2="30.6091266%" y2="50%" id="linearGradient-1">
            <stop stop-color="#B6E1FF" offset="0%"></stop>
            <stop stop-color="#FFFDDC" offset="100%"></stop>
        </linearGradient>
        <path d="M147.733886,0.69167781 C118.358076,4.20685027 89.1891275,21.0271479 62.111463,51.0915418 C35.2858176,80.8761183 17.2892597,112.091998 7.82352931,143.763546 C-0.793199169,172.594403 -2.17577732,201.343404 3.10131653,228.493761 C12.7162025,277.961819 44.3831588,319.108385 82.1715672,334.442815 L84.3593123,335.327157 C107.235344,344.537687 127.144851,351.389493 147.410575,356.40798 C174.840377,363.200538 199.56531,365.585796 221.190225,362.599645 C246.708024,359.075931 267.161011,348.128407 281.712417,328.69334 C298.095755,306.811518 306.723796,274.500053 306.723796,230.702207 C306.723796,141.841899 275.541771,64.1823131 226.65662,25.2243833 C202.543092,6.00764581 175.384847,-2.61709552 147.733886,0.69167781 Z" id="path-2"></path>
    </defs>
    <g id="Page-1" stroke="none" stroke-width="1" fill="none" fill-rule="evenodd">
        <g id="Artboard-Copy-2" transform="translate(-235.000000, -90.000000)">
            <g id="Path-28-Copy-2" transform="translate(246.500000, 90.000000)">
                <mask id="mask-3" fill="white">
                    <use xlink:href="#path-2"></use>
                </mask>
                <use id="Path-28-Copy" fill="url(#linearGradient-1)" fill-rule="nonzero" xlink:href="#path-2"></use>
            </g>
            <rect id="Rectangle-Copy-13" stroke="#0799FF" fill="#99C8E9" x="381.701912" y="309.667215" width="35.9522981" height="43.0678571" rx="17.9761491"></rect>
            <g id="Group-11" transform="translate(422.710276, 409.277831) rotate(-6.000000) translate(-422.710276, -409.277831) translate(412.210276, 337.777831)" stroke="#0799FF">
                <circle id="Oval-Copy-19" fill="#B6E1FF" cx="10.3486365" cy="10.3486365" r="10.3486365"></circle>
                <rect id="Rectangle-Copy-16" fill="#99C8E9" x="6.18077935" y="10.9136874" width="8.33571429" height="64.6841066" rx="4.16785714"></rect>
                <circle id="Oval-Copy-21" fill="#B6E1FF" cx="10.3486365" cy="77.1578127" r="10.3486365"></circle>
                <rect id="Rectangle-Copy-18" fill="#99C8E9" x="6.18077935" y="77.7228636" width="8.33571429" height="64.6841066" rx="4.16785714"></rect>
            </g>
            <circle id="Oval-Copy-12" stroke="#0799FF" fill="#B6E1FF" cx="433.020918" cy="268.580358" r="10.3486365"></circle>
            <rect id="Rectangle-Copy-14" fill="#5E408C" opacity="0.250813802" x="379.533418" y="296.682165" width="40.2892857" height="43.0678571" rx="20.1446429"></rect>
            <rect id="Rectangle-Copy-6" stroke="#0799FF" fill="#B6E1FF" x="366.335204" y="253.625404" width="66.6857143" height="79.8839286" rx="33.3428571"></rect>
            <path d="M399.678061,254.320046 C417.709172,254.320046 432.326276,268.93715 432.326276,286.968261 L432.326276,291.830761 C432.326276,309.861872 367.029847,309.861872 367.029847,291.830761 L367.029847,286.968261 C367.029847,268.93715 381.64695,254.320046 399.678061,254.320046 Z" id="Rectangle-Copy-19" fill="#FFFFFF" fill-rule="nonzero" opacity="0.322405134"></path>
            <path d="M398.213403,269.979363 C402.844355,270.911787 403.770546,274.323241 403.770546,278.985364 C403.770546,283.647487 403.770546,320.012048 403.770546,323.741746 C403.770546,327.471445 402.844355,330.268719 400.991974,331.201143" id="Path-41-Copy-6" stroke-opacity="0.540865385" stroke="#0799FF" opacity="0.389485677" stroke-linecap="round"></path>
            <circle id="Oval-Copy-13" stroke="#0799FF" fill="#B6E1FF" cx="364.213597" cy="268.580358" r="10.3486365"></circle>
            <circle id="Oval-Copy-23" fill="#FFFFFF" fill-rule="nonzero" opacity="0.322405134" cx="364.213597" cy="263.798583" r="4.16785714"></circle>
            <circle id="Oval-Copy-26" fill="#FFFFFF" fill-rule="nonzero" opacity="0.322405134" cx="431.908477" cy="264.441941" r="4.16785714"></circle>
            <g id="Group-12" transform="translate(374.023344, 405.500218) rotate(6.000000) translate(-374.023344, -405.500218) translate(360.523344, 330.500218)">
                <circle id="Oval-Copy-18" stroke="#0799FF" fill="#B6E1FF" cx="16.3486365" cy="17.3486365" r="10.3486365"></circle>
                <rect id="Rectangle-Copy-21" fill="#5E408C" opacity="0.250813802" x="0.714376684" y="0.0884463191" width="18.3874508" height="17.8252411" rx="8.91262053"></rect>
                <rect id="Rectangle-Copy-15" stroke="#0799FF" fill="#99C8E9" x="12.1807793" y="17.9136874" width="8.33571429" height="64.6841066" rx="4.16785714"></rect>
                <circle id="Oval-Copy-20" stroke="#0799FF" fill="#B6E1FF" cx="16.3486365" cy="84.1578127" r="10.3486365"></circle>
                <rect id="Rectangle-Copy-17" stroke="#0799FF" fill="#99C8E9" x="12.1807793" y="84.7228636" width="8.33571429" height="64.6841066" rx="4.16785714"></rect>
            </g>
            <path d="M338.823505,252.467549 C341.125349,252.467549 342.991362,254.333562 342.991362,256.635406 L342.991362,312.983799 C342.991362,315.285643 341.125349,317.151656 338.823505,317.151656 C336.521661,317.151656 334.655647,315.285643 334.655647,312.983799 L334.655647,256.635406 C334.655647,254.333562 336.521661,252.467549 338.823505,252.467549 Z" id="Rectangle-Copy-10" stroke="#0799FF" fill="#99C8E9" transform="translate(338.823505, 284.809603) rotate(57.000000) translate(-338.823505, -284.809603) "></path>
            <path d="M453.018681,206.285251 C455.320525,206.285251 457.186538,208.151265 457.186538,210.453109 L457.186538,266.801501 C457.186538,269.103345 455.320525,270.969358 453.018681,270.969358 C450.716837,270.969358 448.850824,269.103345 448.850824,266.801501 L448.850824,210.453109 C448.850824,208.151265 450.716837,206.285251 453.018681,206.285251 Z" id="Rectangle-Copy-11" stroke="#0799FF" fill="#99C8E9" transform="translate(453.018681, 238.627305) scale(-1, -1) rotate(33.000000) translate(-453.018681, -238.627305) "></path>
            <circle id="Oval-Copy-15" stroke="#0799FF" fill="#B6E1FF" cx="471.507486" cy="209.79838" r="10.3486365"></circle>
            <circle id="Oval-Copy-27" fill="#FFFFFF" fill-rule="nonzero" opacity="0.322405134" cx="467.339629" cy="209.79838" r="4.16785714"></circle>
            <g id="Group-17" transform="translate(305.459250, 290.090253)">
                <circle id="Oval-Copy-14" stroke="#0799FF" fill="#B6E1FF" cx="10.3486365" cy="10.3486365" r="10.3486365"></circle>
                <circle id="Oval-Copy-24" fill="#FFFFFF" fill-rule="nonzero" opacity="0.322405134" cx="11.5413142" cy="6.18077935" r="4.16785714"></circle>
            </g>
            <g id="Group-14" transform="translate(350.464325, 319.700180) rotate(-30.000000) translate(-350.464325, -319.700180) translate(325.464325, 283.200180)" stroke="#0799FF">
                <path d="M19.1678571,-2 C21.4697011,-2 23.3357143,-0.133986797 23.3357143,2.16785714 L23.3357143,50.2189187 C23.3357143,52.5207626 21.4697011,54.3867758 19.1678571,54.3867758 C16.8660132,54.3867758 15,52.5207626 15,50.2189187 L15,2.16785714 C15,-0.133986797 16.8660132,-2 19.1678571,-2 Z" id="Rectangle-Copy-20" fill="#99C8E9" transform="translate(19.167857, 26.193388) scale(1, -1) rotate(33.000000) translate(-19.167857, -26.193388) "></path>
                <circle id="Oval-Copy-28" fill="#FFFFFF" cx="33.5412065" cy="48.4648398" r="8.33571429"></circle>
                <g id="Group-16" transform="translate(24.264875, 46.533222)" fill="#FFFFFF">
                    <path d="M13.2988716,23.232065 C8.15000739,23.5002181 4.31168232,21.6872274 5.2988716,18.232065 C6.16601022,15.1970798 9.2988716,17.232065 12.1515502,18.3369757 C14.4476589,10.5410253 18.5813691,22.9569522 13.2988716,23.232065 Z" id="Path-84-Copy"></path>
                    <path d="M18.9548467,1.86427724 L19.1572986,2.02832008 C19.2252738,2.04695059 19.296694,2.07426845 19.3715594,2.11027367 C22.1554564,3.44914086 23.1554564,3.44914086 24.1554564,7.44914086 C24.4235696,8.52159378 24.3682017,9.59404671 23.9893526,10.6664996 C25.0843507,14.9824803 24.9642689,19.2359221 24.1554564,20.4491409 C22.1554564,23.4491409 13.4379539,25.1740281 8.15545642,25.4491409 C3.00659222,25.717294 -0.831732859,23.9043033 0.155456418,20.4491409 C1.02259504,17.4141557 4.15545642,19.4491409 7.00813499,20.5540516 C9.30424372,12.7581012 -1.60931877,5.98495196 7.98692963,1.12827032 L9.56114838,0.705837286 C13.5883973,-0.651121975 16.6613806,0.0644909499 18.9548467,1.86427724 Z" id="Combined-Shape"></path>
                </g>
            </g>
            <path d="M480.698987,155.785743 C483.000831,155.785743 484.866845,157.651756 484.866845,159.9536 L484.866845,206.298525 C484.866845,208.600369 483.000831,210.466382 480.698987,210.466382 C478.397144,210.466382 476.53113,208.600369 476.53113,206.298525 L476.53113,159.9536 C476.53113,157.651756 478.397144,155.785743 480.698987,155.785743 Z" id="Rectangle-Copy-12" stroke="#0799FF" fill="#99C8E9" transform="translate(480.698987, 183.126063) scale(-1, -1) rotate(20.000000) translate(-480.698987, -183.126063) "></path>
            <path d="M399.602689,269.979363 C404.233641,270.911787 405.159831,274.323241 405.159831,278.985364 C405.159831,283.647487 405.159831,320.012048 405.159831,323.741746 C405.159831,327.471445 404.233641,330.268719 402.38126,331.201143" id="Path-41-Copy" stroke="#FFFFFF" opacity="0.389485677" stroke-linecap="round"></path>
            <circle id="Oval" stroke="#0799FF" fill="#B6E1FF" cx="399.509754" cy="259.630726" r="10.3486365"></circle>
            <rect id="Rectangle-Copy-5" stroke="#0799FF" fill="#99C8E9" x="391.877442" y="238.200282" width="15.2646251" height="25.6490412" rx="7.63231257"></rect>
            <path d="M399.602689,240.720344 C402.056428,241.050097 402.547176,242.256563 402.547176,243.90533 C402.547176,245.554098 402.547176,258.414482 402.547176,259.733496 C402.547176,261.05251 402.056428,262.04177 401.074932,262.371524" id="Path-41" stroke="#FFFFFF" opacity="0.389485677" stroke-linecap="round"></path>
            <path d="M402.547176,265.217789 C402.547176,265.520647 402.547176,267.882939 402.547176,268.125225 C402.547176,268.367512 402.056428,268.549226 401.074932,268.609798" id="Path-41-Copy-2" stroke="#FFFFFF" opacity="0.389485677" stroke-linecap="round"></path>
            <rect id="Rectangle-Copy-9" fill="#5E408C" opacity="0.250813802" x="391.877442" y="241.130173" width="15.2646251" height="11.6568897" rx="5.82844485"></rect>
            <path d="M398.213403,240.720344 C400.667142,241.050097 401.15789,242.256563 401.15789,243.90533 C401.15789,245.554098 401.15789,258.414482 401.15789,259.733496 C401.15789,261.05251 400.667142,262.04177 399.685646,262.371524" id="Path-41-Copy-5" stroke-opacity="0.540865385" stroke="#0799FF" opacity="0.389485677" stroke-linecap="round"></path>
            <rect id="Rectangle" stroke="#0799FF" fill="#B6E1FF" x="371.566466" y="153.544159" width="56.2231911" height="94.4714286" rx="28.1115956"></rect>
            <circle id="Oval" stroke="#0799FF" fill="#B6E1FF" cx="426.902378" cy="197.223899" r="10.6551831"></circle>
            <circle id="Oval-Copy-8" stroke="#0799FF" fill="#FFFFFF" cx="425.906183" cy="197.223899" r="5.47869193"></circle>
            <path d="M396.731183,155.40762 C403.677612,156.796906 405.066897,161.879873 405.066897,168.826302 C405.066897,175.77273 405.066897,229.954873 405.066897,235.512016 C405.066897,241.069159 403.677612,245.237016 400.89904,246.626302" id="Path-41" stroke="#FFFFFF" opacity="0.389485677" stroke-linecap="round"></path>
            <path d="M401.15789,265.217789 C401.15789,265.520647 401.15789,267.882939 401.15789,268.125225 C401.15789,268.367512 400.667142,268.549226 399.685646,268.609798" id="Path-41-Copy-4" stroke-opacity="0.540865385" stroke="#0799FF" opacity="0.389485677" stroke-linecap="round"></path>
            <path d="M395.341897,155.40762 C402.288326,156.796906 403.677612,161.879873 403.677612,168.826302 C403.677612,175.77273 403.677612,229.954873 403.677612,235.512016 C403.677612,241.069159 402.288326,245.237016 399.509754,246.626302" id="Path-41-Copy-3" stroke-opacity="0.540865385" stroke="#0799FF" opacity="0.389485677" stroke-linecap="round"></path>
            <path d="M400.806106,157.434566 C400.806106,154.655995 407.752535,126.87028 392.470392,128.259566" id="Path-40" stroke="#0799FF" stroke-width="2" stroke-linecap="round"></path>
            <rect id="Rectangle-Copy-7" fill="#5E408C" x="422.635398" y="195.281887" width="4.16785714" height="4.16785714" rx="1.67547407"></rect>
            <circle id="Oval-Copy-10" stroke="#0799FF" fill="#B6E1FF" cx="374.86878" cy="197.223899" r="10.6551831"></circle>
            <circle id="Oval-Copy-9" stroke="#0799FF" fill="#FFFFFF" cx="376.556103" cy="197.223899" r="5.47869193"></circle>
            <circle id="Oval-Copy-22" fill="#5E408C" opacity="0.250813802" cx="402.532625" cy="294.270368" r="10.6551831"></circle>
            <circle id="Oval-Copy-17" stroke="#0799FF" fill="#B6E1FF" cx="402.532625" cy="289.584178" r="10.6551831"></circle>
            <circle id="Oval-Copy-16" stroke="#0799FF" fill="#FFFDB6" cx="402.830662" cy="289.584178" r="5.47869193"></circle>
            <rect id="Rectangle-Copy-8" fill="#5E408C" x="376.022413" y="195.281887" width="4.16785714" height="4.16785714" rx="1.67547407"></rect>
            <circle id="Oval" stroke="#0799FF" fill="#5E408C" fill-rule="nonzero" cx="389.196095" cy="129.153126" r="3.67213134"></circle>
            <circle id="Oval-Copy-11" fill="#FFFFFF" cx="389.196095" cy="129.153126" r="1.47224358"></circle>
            <path d="M414.502466,210.386042 C416.167506,208.796662 418.805734,208.857997 420.395114,210.523037 C421.984493,212.188077 421.923159,214.826305 420.258119,216.415684 C410.481272,225.748266 396.940679,224.903812 383.411097,217.186997 C381.411623,216.046565 380.715231,213.501167 381.855664,211.501692 C382.996096,209.502218 385.541494,208.805826 387.540969,209.946259 C398.230499,216.043204 407.941545,216.648831 414.502466,210.386042 Z" id="Path-79-Copy" stroke="#0799FF" fill="#FFFFFF" fill-rule="nonzero"></path>
            <path d="M417.380292,213.400863 C411.789144,218.737947 404.928429,219.759999 398.167605,218.469702 C397.759812,218.391875 397.281004,217.747372 396.731183,216.536191 L393.952612,219.314763 C393.764869,217.962476 393.502261,217.227352 393.164787,217.109391 C390.501063,216.178304 387.908494,214.954021 385.476033,213.566628" id="Path-79" stroke="#B6E1FF" stroke-linecap="round"></path>
            <path d="M377.984585,181.137297 C378.910775,171.875393 383.541728,164.928964 391.877442,160.298012" id="Path-80" stroke="#FFFFFF" stroke-width="3" opacity="0.359770275" stroke-linecap="round"></path>
            <path d="M377.984585,240.61853 C378.910775,231.356625 383.541728,224.410196 391.877442,219.779244" id="Path-80-Copy" stroke="#FFFFFF" stroke-width="3" opacity="0.359770275" stroke-linecap="round" transform="translate(384.931013, 230.198887) scale(1, -1) translate(-384.931013, -230.198887) "></path>
            <path d="M424.936353,472.981976 C421.978137,482.898978 421.238582,488.477292 422.717691,489.716917 C424.936353,491.576355 467.090932,493.435793 472.082922,491.576355 C477.074911,489.716917 475.167588,474.841414 468.200263,472.981976 C463.55538,471.74235 455.654624,471.74235 444.497997,472.981976 L424.936353,472.981976 Z" id="Path-21" stroke="#0799FF" fill="#99C8E9"></path>
            <path d="M335.645349,472.981976 C333.209171,482.898978 332.600127,488.477292 333.818216,489.716917 C335.645349,491.576355 370.360885,493.435793 374.471936,491.576355 C378.582986,489.716917 377.214539,477.320664 371.274452,472.981976 C367.314394,470.089517 360.158121,470.089517 349.805634,472.981976 L335.645349,472.981976 Z" id="Path-21-Copy" stroke="#0799FF" fill="#99C8E9" transform="translate(355.022342, 481.579596) scale(-1, 1) translate(-355.022342, -481.579596) "></path>
            <path d="M358.183217,472.543702 C358.425269,472.30165 358.817712,472.30165 359.059764,472.543702 C361.583685,475.067622 363.482801,477.599778 364.754182,480.142539 C364.907269,480.448713 364.783167,480.821018 364.476993,480.974105 C364.170819,481.127192 363.798514,481.00309 363.645427,480.696916 C362.437557,478.281176 360.617798,475.85483 358.183217,473.420249 C357.941165,473.178197 357.941165,472.785754 358.183217,472.543702 Z" id="Path-24" fill="#0799FF" fill-rule="nonzero"></path>
            <path d="M375.402061,484.817582 C375.711697,484.671625 376.081029,484.804314 376.226985,485.113951 C376.372942,485.423588 376.240253,485.792919 375.930617,485.938876 C372.463179,487.573358 368.627573,488.41797 364.429611,488.474276 L362.93036,488.487139 C362.154055,488.505846 361.250532,488.558885 359.212881,488.70605 L353.050013,489.161154 C352.02247,489.23412 351.115961,489.294026 350.236071,489.346387 L349.652386,489.380237 C342.184281,489.801941 337.270578,489.596407 334.516635,488.428068 C334.201508,488.294377 334.054424,487.930539 334.188115,487.615412 C334.321805,487.300285 334.685644,487.153201 335.000771,487.286891 C337.373354,488.293442 341.801949,488.528174 348.415926,488.204195 L349.582499,488.142583 C350.546546,488.088146 351.518454,488.025888 352.627129,487.94827 L360.041143,487.404341 C361.924229,487.273064 362.627237,487.244514 363.498405,487.238921 L363.978443,487.237667 C368.174878,487.237667 371.980597,486.430393 375.402061,484.817582 Z" id="Path-25" fill="#0799FF" fill-rule="nonzero"></path>
            <path d="M435.937433,473.549535 C436.137448,473.271736 436.524793,473.20868 436.802591,473.408695 C440.29918,475.926239 442.931387,478.453158 444.697186,480.995908 C444.89244,481.277074 444.822794,481.663288 444.541629,481.858542 C444.260463,482.053796 443.874249,481.984151 443.678995,481.702985 C442.00139,479.287234 439.468491,476.855651 436.078272,474.414694 C435.800474,474.214679 435.737418,473.827334 435.937433,473.549535 Z" id="Path-24-Copy" fill="#0799FF" fill-rule="nonzero" transform="translate(440.314266, 477.630575) scale(-1, 1) translate(-440.314266, -477.630575) "></path>
            <path d="M473.249443,484.798828 C473.569438,484.677247 473.927405,484.838093 474.048986,485.158087 C474.170567,485.478081 474.009722,485.836049 473.689727,485.95763 C469.419216,487.5802 464.696655,488.41842 459.524881,488.474299 L458.016254,488.481661 C457.147916,488.491871 456.278389,488.524765 454.44039,488.626609 L444.518854,489.210904 C443.323855,489.27717 442.248592,489.331959 441.180307,489.380582 L439.863548,489.437095 C431.375888,489.778339 425.722174,489.53992 422.517145,488.443951 C422.193245,488.333193 422.02046,487.980833 422.131219,487.656934 C422.241977,487.333034 422.594337,487.160249 422.918236,487.271008 C426.028426,488.334546 431.875678,488.547404 440.681202,488.162006 L441.76429,488.112392 C442.943216,488.056159 444.158484,487.991171 445.559716,487.910374 L455.232373,487.342457 C456.423116,487.28058 457.137223,487.254923 457.814295,487.244509 L458.969044,487.237667 C464.213066,487.237667 468.972149,486.423976 473.249443,484.798828 Z" id="Path-25-Copy" fill="#0799FF" fill-rule="nonzero" transform="translate(448.093637, 487.169791) scale(-1, 1) translate(-448.093637, -487.169791) "></path>
            <g id="Group-13" transform="translate(496.316922, 136.490970) rotate(20.000000) translate(-496.316922, -136.490970) translate(478.316922, 110.990970)" stroke="#0799FF">
                <circle id="Oval-Copy-28" fill="#FFFFFF" cx="19.800427" cy="42.5388655" r="8.33571429"></circle>
                <path d="M18.6838805,42.5388655 C4.79102332,42.5388655 -2.21594903,28.7065522 0.623166173,25.867437 C3.4017376,23.0888655 5.8366218,28.7064199 10.3481662,31.4245798 C11.3282112,32.0150471 11.6585805,31.5584373 11.6585805,26.0012944 C11.6585805,20.4441516 4.71215192,6.55129444 8.88000907,5.16200872 C11.6585805,4.23581825 14.4977847,9.31044571 17.3976216,20.3858911 C14.4977847,8.38425523 14.4371519,1.92034206 17.2157234,0.994151582 C19.9942948,0.0679611058 21.7350886,6.27507158 22.4381049,19.615483 C21.7350886,8.12745253 22.7728662,2.3834373 25.5514376,2.3834373 C28.3300091,2.3834373 29.0863993,8.18388071 27.8206082,19.7847675 C29.2823182,8.7449354 31.3044994,3.87068247 33.8871519,5.16200872 C36.6657234,6.55129444 34.499799,12.746946 33.8871519,21.8334373 C33.1526763,32.726832 29.6689106,42.5388655 22.8517376,42.5388655 C10.3481662,42.5388655 32.5767376,42.5388655 18.6838805,42.5388655 Z" id="Path-81" fill="#FFFFFF"></path>
                <path d="M14.1621823,21.1862891 C21.271988,20.1226475 26.6792719,20.053922 30.3840338,20.9801125" id="Path-82" stroke-linecap="round"></path>
                <path d="M16.0514961,28.4262191 C22.2549413,34.0718096 20.9080879,30.7224324 21.3335631,37.8808917" id="Path-83" stroke-linecap="round"></path>
            </g>
            <ellipse id="Oval" fill="#0799FF" opacity="0.0734747024" cx="400" cy="490.479254" rx="140.5" ry="18.9556541"></ellipse>
            <circle id="Background_19_-Copy" fill="#FFCA07" fill-rule="nonzero" opacity="0.361049107" cx="288.990521" cy="160.990521" r="53.9905213"></circle>
            <circle id="Background_19_-Copy-2" fill="#FF07DF" fill-rule="nonzero" opacity="0.361049107" cx="545.672986" cy="347.672986" r="82.6729858"></circle>
        </g>
    </g>
</svg>